<svg width="202" height="71" viewBox="0 0 202 71" fill="none" xmlns="http://www.w3.org/2000/svg">
<rect width="202" height="71" fill="#04172A"/>
<path d="M82.4691 25V16.6H85.3371C86.3211 16.6 87.1291 16.776 87.7611 17.128C88.4011 17.472 88.8731 17.96 89.1771 18.592C89.4891 19.216 89.6451 19.952 89.6451 20.8C89.6451 21.648 89.4891 22.388 89.1771 23.02C88.8731 23.644 88.4011 24.132 87.7611 24.484C87.1291 24.828 86.3211 25 85.3371 25H82.4691ZM84.0051 23.68H85.2651C85.9691 23.68 86.5251 23.568 86.9331 23.344C87.3411 23.112 87.6331 22.784 87.8091 22.36C87.9851 21.928 88.0731 21.408 88.0731 20.8C88.0731 20.2 87.9851 19.684 87.8091 19.252C87.6331 18.82 87.3411 18.488 86.9331 18.256C86.5251 18.024 85.9691 17.908 85.2651 17.908H84.0051V23.68ZM93.5804 25.144C93.0044 25.144 92.4844 25.012 92.0204 24.748C91.5644 24.484 91.2004 24.12 90.9284 23.656C90.6644 23.184 90.5324 22.64 90.5324 22.024C90.5324 21.408 90.6684 20.868 90.9404 20.404C91.2124 19.932 91.5764 19.564 92.0324 19.3C92.4964 19.036 93.0164 18.904 93.5924 18.904C94.1604 18.904 94.6724 19.036 95.1284 19.3C95.5924 19.564 95.9564 19.932 96.2204 20.404C96.4924 20.868 96.6284 21.408 96.6284 22.024C96.6284 22.64 96.4924 23.184 96.2204 23.656C95.9564 24.12 95.5924 24.484 95.1284 24.748C94.6644 25.012 94.1484 25.144 93.5804 25.144ZM93.5804 23.812C93.9804 23.812 94.3284 23.664 94.6244 23.368C94.9204 23.064 95.0684 22.616 95.0684 22.024C95.0684 21.432 94.9204 20.988 94.6244 20.692C94.3284 20.388 93.9844 20.236 93.5924 20.236C93.1844 20.236 92.8324 20.388 92.5364 20.692C92.2484 20.988 92.1044 21.432 92.1044 22.024C92.1044 22.616 92.2484 23.064 92.5364 23.368C92.8324 23.664 93.1804 23.812 93.5804 23.812ZM98.7148 25L96.9748 19.048H98.4988L99.5308 23.332L100.731 19.048H102.435L103.635 23.332L104.679 19.048H106.203L104.451 25H102.855L101.583 20.548L100.311 25H98.7148ZM106.932 25V19.048H108.288L108.408 20.056C108.592 19.704 108.856 19.424 109.2 19.216C109.552 19.008 109.964 18.904 110.436 18.904C111.172 18.904 111.744 19.136 112.152 19.6C112.56 20.064 112.764 20.744 112.764 21.64V25H111.228V21.784C111.228 21.272 111.124 20.88 110.916 20.608C110.708 20.336 110.384 20.2 109.944 20.2C109.512 20.2 109.156 20.352 108.876 20.656C108.604 20.96 108.468 21.384 108.468 21.928V25H106.932ZM113.993 25V16.36H115.529V25H113.993ZM119.714 25.144C119.138 25.144 118.618 25.012 118.154 24.748C117.698 24.484 117.334 24.12 117.062 23.656C116.798 23.184 116.666 22.64 116.666 22.024C116.666 21.408 116.802 20.868 117.074 20.404C117.346 19.932 117.71 19.564 118.166 19.3C118.63 19.036 119.15 18.904 119.726 18.904C120.294 18.904 120.806 19.036 121.262 19.3C121.726 19.564 122.09 19.932 122.354 20.404C122.626 20.868 122.762 21.408 122.762 22.024C122.762 22.64 122.626 23.184 122.354 23.656C122.09 24.12 121.726 24.484 121.262 24.748C120.798 25.012 120.282 25.144 119.714 25.144ZM119.714 23.812C120.114 23.812 120.462 23.664 120.758 23.368C121.054 23.064 121.202 22.616 121.202 22.024C121.202 21.432 121.054 20.988 120.758 20.692C120.462 20.388 120.118 20.236 119.726 20.236C119.318 20.236 118.966 20.388 118.67 20.692C118.382 20.988 118.238 21.432 118.238 22.024C118.238 22.616 118.382 23.064 118.67 23.368C118.966 23.664 119.314 23.812 119.714 23.812ZM125.947 25.144C125.435 25.144 125.015 25.064 124.687 24.904C124.359 24.736 124.115 24.516 123.955 24.244C123.795 23.972 123.715 23.672 123.715 23.344C123.715 22.792 123.931 22.344 124.363 22C124.795 21.656 125.443 21.484 126.307 21.484H127.819V21.34C127.819 20.932 127.703 20.632 127.471 20.44C127.239 20.248 126.951 20.152 126.607 20.152C126.295 20.152 126.023 20.228 125.791 20.38C125.559 20.524 125.415 20.74 125.359 21.028H123.859C123.899 20.596 124.043 20.22 124.291 19.9C124.547 19.58 124.875 19.336 125.275 19.168C125.675 18.992 126.123 18.904 126.619 18.904C127.467 18.904 128.135 19.116 128.623 19.54C129.111 19.964 129.355 20.564 129.355 21.34V25H128.047L127.903 24.04C127.727 24.36 127.479 24.624 127.159 24.832C126.847 25.04 126.443 25.144 125.947 25.144ZM126.295 23.944C126.735 23.944 127.075 23.8 127.315 23.512C127.563 23.224 127.719 22.868 127.783 22.444H126.475C126.067 22.444 125.775 22.52 125.599 22.672C125.423 22.816 125.335 22.996 125.335 23.212C125.335 23.444 125.423 23.624 125.599 23.752C125.775 23.88 126.007 23.944 126.295 23.944ZM133.317 25.144C132.757 25.144 132.257 25.008 131.817 24.736C131.377 24.464 131.029 24.092 130.773 23.62C130.517 23.148 130.389 22.612 130.389 22.012C130.389 21.412 130.517 20.88 130.773 20.416C131.029 19.944 131.377 19.576 131.817 19.312C132.257 19.04 132.757 18.904 133.317 18.904C133.765 18.904 134.157 18.988 134.493 19.156C134.829 19.324 135.101 19.56 135.309 19.864V16.36H136.845V25H135.477L135.309 24.148C135.117 24.412 134.861 24.644 134.541 24.844C134.229 25.044 133.821 25.144 133.317 25.144ZM133.641 23.8C134.137 23.8 134.541 23.636 134.853 23.308C135.173 22.972 135.333 22.544 135.333 22.024C135.333 21.504 135.173 21.08 134.853 20.752C134.541 20.416 134.137 20.248 133.641 20.248C133.153 20.248 132.749 20.412 132.429 20.74C132.109 21.068 131.949 21.492 131.949 22.012C131.949 22.532 132.109 22.96 132.429 23.296C132.749 23.632 133.153 23.8 133.641 23.8ZM143.645 25.144C143.069 25.144 142.549 25.012 142.085 24.748C141.629 24.484 141.265 24.12 140.993 23.656C140.729 23.184 140.597 22.64 140.597 22.024C140.597 21.408 140.733 20.868 141.005 20.404C141.277 19.932 141.641 19.564 142.097 19.3C142.561 19.036 143.081 18.904 143.657 18.904C144.225 18.904 144.737 19.036 145.193 19.3C145.657 19.564 146.021 19.932 146.285 20.404C146.557 20.868 146.693 21.408 146.693 22.024C146.693 22.64 146.557 23.184 146.285 23.656C146.021 24.12 145.657 24.484 145.193 24.748C144.729 25.012 144.213 25.144 143.645 25.144ZM143.645 23.812C144.045 23.812 144.393 23.664 144.689 23.368C144.985 23.064 145.133 22.616 145.133 22.024C145.133 21.432 144.985 20.988 144.689 20.692C144.393 20.388 144.049 20.236 143.657 20.236C143.249 20.236 142.897 20.388 142.601 20.692C142.313 20.988 142.169 21.432 142.169 22.024C142.169 22.616 142.313 23.064 142.601 23.368C142.897 23.664 143.245 23.812 143.645 23.812ZM147.826 25V19.048H149.182L149.302 20.056C149.486 19.704 149.75 19.424 150.094 19.216C150.446 19.008 150.858 18.904 151.33 18.904C152.066 18.904 152.638 19.136 153.046 19.6C153.454 20.064 153.658 20.744 153.658 21.64V25H152.122V21.784C152.122 21.272 152.018 20.88 151.81 20.608C151.602 20.336 151.278 20.2 150.838 20.2C150.406 20.2 150.05 20.352 149.77 20.656C149.498 20.96 149.362 21.384 149.362 21.928V25H147.826ZM71.6518 51L76.7718 37H79.6518L84.7718 51H82.0518L80.9318 47.76H75.4718L74.3318 51H71.6518ZM76.1718 45.76H80.2318L78.1918 39.94L76.1718 45.76ZM86.1152 55.4V41.08H88.3952L88.6752 42.5C88.9952 42.06 89.4152 41.6733 89.9352 41.34C90.4686 41.0067 91.1552 40.84 91.9952 40.84C92.9286 40.84 93.7619 41.0667 94.4952 41.52C95.2286 41.9733 95.8086 42.5933 96.2352 43.38C96.6619 44.1667 96.8752 45.06 96.8752 46.06C96.8752 47.06 96.6619 47.9533 96.2352 48.74C95.8086 49.5133 95.2286 50.1267 94.4952 50.58C93.7619 51.02 92.9286 51.24 91.9952 51.24C91.2486 51.24 90.5952 51.1 90.0352 50.82C89.4752 50.54 89.0219 50.1467 88.6752 49.64V55.4H86.1152ZM91.4552 49C92.2686 49 92.9419 48.7267 93.4752 48.18C94.0086 47.6333 94.2752 46.9267 94.2752 46.06C94.2752 45.1933 94.0086 44.48 93.4752 43.92C92.9419 43.36 92.2686 43.08 91.4552 43.08C90.6286 43.08 89.9486 43.36 89.4152 43.92C88.8952 44.4667 88.6352 45.1733 88.6352 46.04C88.6352 46.9067 88.8952 47.62 89.4152 48.18C89.9486 48.7267 90.6286 49 91.4552 49ZM98.7621 55.4V41.08H101.042L101.322 42.5C101.642 42.06 102.062 41.6733 102.582 41.34C103.115 41.0067 103.802 40.84 104.642 40.84C105.575 40.84 106.409 41.0667 107.142 41.52C107.875 41.9733 108.455 42.5933 108.882 43.38C109.309 44.1667 109.522 45.06 109.522 46.06C109.522 47.06 109.309 47.9533 108.882 48.74C108.455 49.5133 107.875 50.1267 107.142 50.58C106.409 51.02 105.575 51.24 104.642 51.24C103.895 51.24 103.242 51.1 102.682 50.82C102.122 50.54 101.669 50.1467 101.322 49.64V55.4H98.7621ZM104.102 49C104.915 49 105.589 48.7267 106.122 48.18C106.655 47.6333 106.922 46.9267 106.922 46.06C106.922 45.1933 106.655 44.48 106.122 43.92C105.589 43.36 104.915 43.08 104.102 43.08C103.275 43.08 102.595 43.36 102.062 43.92C101.542 44.4667 101.282 45.1733 101.282 46.04C101.282 46.9067 101.542 47.62 102.062 48.18C102.595 48.7267 103.275 49 104.102 49ZM120.615 51.24C119.588 51.24 118.681 51.0667 117.895 50.72C117.108 50.36 116.488 49.8533 116.035 49.2C115.581 48.5333 115.348 47.7267 115.335 46.78H118.035C118.061 47.4333 118.295 47.9867 118.735 48.44C119.188 48.88 119.808 49.1 120.595 49.1C121.275 49.1 121.815 48.94 122.215 48.62C122.615 48.2867 122.815 47.8467 122.815 47.3C122.815 46.7267 122.635 46.28 122.275 45.96C121.928 45.64 121.461 45.38 120.875 45.18C120.288 44.98 119.661 44.7667 118.995 44.54C117.915 44.1667 117.088 43.6867 116.515 43.1C115.955 42.5133 115.675 41.7333 115.675 40.76C115.661 39.9333 115.855 39.2267 116.255 38.64C116.668 38.04 117.228 37.58 117.935 37.26C118.641 36.9267 119.455 36.76 120.375 36.76C121.308 36.76 122.128 36.9267 122.835 37.26C123.555 37.5933 124.115 38.06 124.515 38.66C124.928 39.26 125.148 39.9733 125.175 40.8H122.435C122.421 40.3067 122.228 39.8733 121.855 39.5C121.495 39.1133 120.988 38.92 120.335 38.92C119.775 38.9067 119.301 39.0467 118.915 39.34C118.541 39.62 118.355 40.0333 118.355 40.58C118.355 41.0467 118.501 41.42 118.795 41.7C119.088 41.9667 119.488 42.1933 119.995 42.38C120.501 42.5667 121.081 42.7667 121.735 42.98C122.428 43.22 123.061 43.5 123.635 43.82C124.208 44.14 124.668 44.5667 125.015 45.1C125.361 45.62 125.535 46.2933 125.535 47.12C125.535 47.8533 125.348 48.5333 124.975 49.16C124.601 49.7867 124.048 50.2933 123.315 50.68C122.581 51.0533 121.681 51.24 120.615 51.24ZM131.728 51C130.688 51 129.855 50.7467 129.228 50.24C128.602 49.7333 128.288 48.8333 128.288 47.54V43.22H126.588V41.08H128.288L128.588 38.42H130.848V41.08H133.528V43.22H130.848V47.56C130.848 48.04 130.948 48.3733 131.148 48.56C131.362 48.7333 131.722 48.82 132.228 48.82H133.468V51H131.728ZM139.832 51.24C138.872 51.24 138.006 51.02 137.232 50.58C136.472 50.14 135.866 49.5333 135.412 48.76C134.972 47.9733 134.752 47.0667 134.752 46.04C134.752 45.0133 134.979 44.1133 135.432 43.34C135.886 42.5533 136.492 41.94 137.252 41.5C138.026 41.06 138.892 40.84 139.852 40.84C140.799 40.84 141.652 41.06 142.412 41.5C143.186 41.94 143.792 42.5533 144.232 43.34C144.686 44.1133 144.912 45.0133 144.912 46.04C144.912 47.0667 144.686 47.9733 144.232 48.76C143.792 49.5333 143.186 50.14 142.412 50.58C141.639 51.02 140.779 51.24 139.832 51.24ZM139.832 49.02C140.499 49.02 141.079 48.7733 141.572 48.28C142.066 47.7733 142.312 47.0267 142.312 46.04C142.312 45.0533 142.066 44.3133 141.572 43.82C141.079 43.3133 140.506 43.06 139.852 43.06C139.172 43.06 138.586 43.3133 138.092 43.82C137.612 44.3133 137.372 45.0533 137.372 46.04C137.372 47.0267 137.612 47.7733 138.092 48.28C138.586 48.7733 139.166 49.02 139.832 49.02ZM146.801 51V41.08H149.081L149.321 42.94C149.681 42.3 150.168 41.7933 150.781 41.42C151.408 41.0333 152.141 40.84 152.981 40.84V43.54H152.261C151.701 43.54 151.201 43.6267 150.761 43.8C150.321 43.9733 149.975 44.2733 149.721 44.7C149.481 45.1267 149.361 45.72 149.361 46.48V51H146.801ZM158.975 51.24C157.975 51.24 157.088 51.0267 156.315 50.6C155.542 50.1733 154.935 49.5733 154.495 48.8C154.055 48.0267 153.835 47.1333 153.835 46.12C153.835 45.0933 154.048 44.18 154.475 43.38C154.915 42.58 155.515 41.96 156.275 41.52C157.048 41.0667 157.955 40.84 158.995 40.84C159.968 40.84 160.828 41.0533 161.575 41.48C162.322 41.9067 162.902 42.4933 163.315 43.24C163.742 43.9733 163.955 44.7933 163.955 45.7C163.955 45.8467 163.948 46 163.935 46.16C163.935 46.32 163.928 46.4867 163.915 46.66H156.375C156.428 47.4333 156.695 48.04 157.175 48.48C157.668 48.92 158.262 49.14 158.955 49.14C159.475 49.14 159.908 49.0267 160.255 48.8C160.615 48.56 160.882 48.2533 161.055 47.88H163.655C163.468 48.5067 163.155 49.08 162.715 49.6C162.288 50.1067 161.755 50.5067 161.115 50.8C160.488 51.0933 159.775 51.24 158.975 51.24ZM158.995 42.92C158.368 42.92 157.815 43.1 157.335 43.46C156.855 43.8067 156.548 44.34 156.415 45.06H161.355C161.315 44.4067 161.075 43.8867 160.635 43.5C160.195 43.1133 159.648 42.92 158.995 42.92Z" fill="white"/>
<g clip-path="url(#clip0)">
<path d="M31.6175 53.3253C30.9077 52.8531 30.2787 52.2696 29.7545 51.5973C29.1779 50.9034 28.6437 50.1753 28.1548 49.417C27.0074 47.7361 26.1075 45.8989 25.4829 43.9619C24.7325 41.7119 24.3691 39.5553 24.3691 37.4459C24.3691 35.0902 24.8788 33.0337 25.8755 31.3057C26.6144 29.955 27.7007 28.8264 29.0221 28.0364C30.3027 27.241 31.7742 26.8057 33.2814 26.7764C33.809 26.7764 34.3771 26.8529 34.9801 26.9992C35.4133 27.1218 35.9409 27.3153 36.5855 27.556C37.4056 27.8722 37.8568 28.0657 38.0098 28.1129C38.4901 28.2884 38.894 28.3649 39.2113 28.3649C39.452 28.3649 39.7918 28.2884 40.1776 28.1714C40.3948 28.0949 40.8043 27.9599 41.3904 27.709C41.9709 27.4975 42.4276 27.3164 42.791 27.1814C43.3479 27.0172 43.8868 26.8653 44.3671 26.7888C44.9366 26.699 45.5146 26.6752 46.0895 26.7179C47.0858 26.783 48.0672 26.9942 49.0021 27.3445C50.531 27.9599 51.7674 28.9207 52.6876 30.2864C52.2987 30.5262 51.9336 30.8027 51.5975 31.1122C50.8658 31.7608 50.2426 32.5223 49.7514 33.3678C49.1094 34.5232 48.7765 35.8249 48.785 37.1467C48.8086 38.77 49.2249 40.1999 50.045 41.4363C50.648 42.3526 51.4316 43.1362 52.3479 43.7392C52.817 44.0553 53.2209 44.2724 53.6079 44.4187C53.4268 44.9812 53.2333 45.5257 53.0049 46.0657C52.4869 47.2766 51.8592 48.4376 51.1295 49.534C50.4793 50.4779 49.9696 51.181 49.5826 51.649C48.9796 52.3634 48.3991 52.909 47.813 53.2893C47.1684 53.7168 46.4068 53.9452 45.6328 53.9452C45.1086 53.9653 44.5845 53.9019 44.0803 53.7573C43.6471 53.611 43.2185 53.4524 42.7966 53.2713C42.358 53.0698 41.9058 52.8995 41.4433 52.7617C40.2999 52.468 39.1012 52.4661 37.9569 52.756C37.4878 52.891 37.0366 53.0485 36.5911 53.242C35.9645 53.5053 35.5483 53.6819 35.3075 53.7573C34.8271 53.8979 34.3288 53.9857 33.8248 54.0149C33.0451 54.0149 32.3184 53.7922 31.5984 53.341L31.6175 53.3253ZM41.9 25.6334C40.8808 26.143 39.9076 26.3602 38.9413 26.2893C38.7894 25.3162 38.9413 24.3205 39.3451 23.2304C39.689 22.3069 40.197 21.4531 40.8448 20.7104C41.5288 19.9286 42.3588 19.2877 43.2883 18.8238C44.2783 18.3142 45.2221 18.0385 46.1244 17.998C46.2414 19.0173 46.1244 20.0197 45.7498 21.103C45.4031 22.0607 44.896 22.9525 44.2501 23.74C43.591 24.523 42.782 25.1663 41.8708 25.6323L41.9 25.6334Z" fill="white"/>
</g>
<defs>
<clipPath id="clip0">
<rect width="36" height="36" fill="white" transform="translate(21 18)"/>
</clipPath>
</defs>
</svg>
