<svg width="250" height="250" viewBox="0 0 250 250" fill="none" xmlns="http://www.w3.org/2000/svg">
<g opacity="0.9">
<path d="M250 191.2H0V191.325H250V191.2Z" fill="#EBEBEB"/>
<path d="M224.951 199.245H208.391V199.37H224.951V199.245Z" fill="#EBEBEB"/>
<path d="M165.611 200.605H161.266V200.73H165.611V200.605Z" fill="#EBEBEB"/>
<path d="M207.89 194.605H198.295V194.73H207.89V194.605Z" fill="#EBEBEB"/>
<path d="M47.8255 195.445H26.2305V195.57H47.8255V195.445Z" fill="#EBEBEB"/>
<path d="M55.4443 195.445H52.2793V195.57H55.4443V195.445Z" fill="#EBEBEB"/>
<path d="M112.574 197.555H65.7344V197.68H112.574V197.555Z" fill="#EBEBEB"/>
<path d="M118.5 168.9H21.9555C21.1991 168.899 20.4742 168.597 19.9399 168.062C19.4056 167.527 19.1055 166.801 19.1055 166.045V30.33C19.1121 29.578 19.4151 28.859 19.9487 28.3291C20.4823 27.7992 21.2035 27.5013 21.9555 27.5H118.5C119.258 27.5 119.984 27.8008 120.519 28.3362C121.055 28.8716 121.355 29.5978 121.355 30.355V166.045C121.355 166.802 121.055 167.528 120.519 168.064C119.984 168.599 119.258 168.9 118.5 168.9ZM21.9555 27.6C21.2323 27.6013 20.5392 27.8895 20.0283 28.4014C19.5174 28.9132 19.2305 29.6068 19.2305 30.33V166.045C19.2305 166.768 19.5174 167.462 20.0283 167.974C20.5392 168.485 21.2323 168.774 21.9555 168.775H118.5C119.224 168.774 119.918 168.486 120.429 167.974C120.941 167.462 121.229 166.769 121.23 166.045V30.33C121.229 29.6064 120.941 28.9127 120.429 28.4011C119.918 27.8894 119.224 27.6013 118.5 27.6H21.9555Z" fill="#EBEBEB"/>
<path d="M226.655 168.9H130.105C129.348 168.899 128.623 168.597 128.088 168.062C127.553 167.527 127.251 166.802 127.25 166.045V30.33C127.258 29.5776 127.562 28.8585 128.096 28.3288C128.631 27.7991 129.353 27.5013 130.105 27.5H226.655C227.406 27.5026 228.126 27.8011 228.659 28.3309C229.191 28.8606 229.493 29.5789 229.5 30.33V166.045C229.5 166.8 229.201 167.525 228.667 168.06C228.134 168.595 227.41 168.897 226.655 168.9ZM130.105 27.6C129.381 27.6013 128.688 27.8894 128.176 28.4011C127.664 28.9127 127.376 29.6064 127.375 30.33V166.045C127.376 166.769 127.664 167.462 128.176 167.974C128.688 168.486 129.381 168.774 130.105 168.775H226.655C227.379 168.774 228.072 168.486 228.584 167.974C229.096 167.462 229.384 166.769 229.385 166.045V30.33C229.384 29.6064 229.096 28.9127 228.584 28.4011C228.072 27.8894 227.379 27.6013 226.655 27.6H130.105Z" fill="#EBEBEB"/>
<path d="M206.904 113.26V51.5303H165.634V113.26H206.904Z" fill="#E6E6E6"/>
<path d="M205.65 113.255V51.5254H164.38V113.255H205.65Z" fill="#F5F5F5"/>
<path d="M200.346 56.8301H169.686V107.955H200.346V56.8301Z" fill="white"/>
<path d="M170.385 107.955V56.8301H169.69V107.955H170.385Z" fill="#E6E6E6"/>
<path d="M107.414 191.2H124.914V134.755H107.414V191.2Z" fill="#E6E6E6"/>
<path d="M110.735 191.2H107.41V183.19H114.22L110.735 191.2Z" fill="#F0F0F0"/>
<path d="M200.93 191.19H218.43V134.745H200.93V191.19Z" fill="#E6E6E6"/>
<path d="M107.415 190.025H203.83V134.755H107.415V190.025Z" fill="#F0F0F0"/>
<path d="M109.99 138.125V150.83H168.56V138.125H109.99Z" fill="#E6E6E6"/>
<path d="M170.795 138.12V150.825H201.255V138.12H170.795Z" fill="#E6E6E6"/>
<path d="M183.001 139.655H189.026C191.446 139.707 193.835 139.109 195.946 137.925H176.086C178.195 139.109 180.583 139.706 183.001 139.655Z" fill="#F0F0F0"/>
<path d="M121.895 139.655H156.03C158.45 139.707 160.839 139.109 162.95 137.925H115C117.104 139.105 119.484 139.702 121.895 139.655Z" fill="#F0F0F0"/>
<path d="M109.994 154.465V167.17H168.564V154.465H109.994Z" fill="#E6E6E6"/>
<path d="M170.795 154.465V167.17H201.255V154.465H170.795Z" fill="#E6E6E6"/>
<path d="M183.001 156H189.026C191.445 156.052 193.834 155.456 195.946 154.275H176.086C178.196 155.455 180.584 156.051 183.001 156Z" fill="#F0F0F0"/>
<path d="M121.895 156H156.03C158.45 156.051 160.839 155.454 162.95 154.27H115C117.104 155.449 119.484 156.047 121.895 156Z" fill="#F0F0F0"/>
<path d="M109.99 170.81V183.515H168.56V170.81H109.99Z" fill="#E6E6E6"/>
<path d="M170.795 170.81V183.515H201.255V170.81H170.795Z" fill="#E6E6E6"/>
<path d="M183.001 172.34H189.026C191.446 172.392 193.835 171.795 195.946 170.61H176.086C178.195 171.794 180.583 172.391 183.001 172.34Z" fill="#F0F0F0"/>
<path d="M121.9 172.34H156.03C158.451 172.392 160.842 171.794 162.955 170.61H115C117.105 171.791 119.487 172.389 121.9 172.34Z" fill="#F0F0F0"/>
<path d="M200.505 191.2H203.825V183.19H197.02L200.505 191.2Z" fill="#F0F0F0"/>
<path d="M209.615 124.71C209.615 124.71 209.115 130.445 189.615 130.445C170.115 130.445 169.645 124.71 169.645 124.71H209.615Z" fill="#FAFAFA"/>
<path d="M209.615 129C209.615 129 209.115 134.735 189.615 134.735C170.115 134.735 169.67 129 169.67 129H209.615Z" fill="#EBEBEB"/>
<path d="M73.2949 191.2H93.3049L87.3749 139.735H73.2949V191.2Z" fill="#E6E6E6"/>
<path d="M39.5254 191.2H84.0254L88.7204 130.965H44.2204L39.5254 191.2Z" fill="#E0E0E0"/>
<path d="M36.3203 191.2H82.6303L87.3253 130.965H41.0203L36.3203 191.2Z" fill="#F5F5F5"/>
<path d="M78.2545 186.45L82.2095 135.71H45.3945L41.4395 186.45H78.2545Z" fill="white"/>
<path d="M144.51 37.8447H31.1152V120.49H144.51V37.8447Z" fill="#EBEBEB"/>
<path d="M140.629 42.2148H34.9941V116.115H140.629V42.2148Z" fill="#FAFAFA"/>
<path d="M57.7256 116.12H46.6406L57.0806 42.2148H68.1656L57.7256 116.12Z" fill="white"/>
<path d="M85.1193 116.12H74.0293L84.4693 42.2148H95.5593L85.1193 116.12Z" fill="white"/>
<path d="M120.436 116.12H114.891L125.331 42.2148H130.876L120.436 116.12Z" fill="white"/>
<path d="M94.8692 116.12H89.3242L99.7642 42.2148H105.309L94.8692 116.12Z" fill="white"/>
<path d="M70.4047 42.2148H65.1797V116.115H70.4047V42.2148Z" fill="#EBEBEB"/>
<path d="M70.4053 116.12H71.5703L71.5703 42.2201H70.4053L70.4053 116.12Z" fill="#E0E0E0"/>
<path d="M144.511 120.49H145.346V37.8452H144.511V120.49Z" fill="#E0E0E0"/>
<path d="M125 213.78C178.541 213.78 221.945 211.246 221.945 208.12C221.945 204.994 178.541 202.46 125 202.46C71.4584 202.46 28.0547 204.994 28.0547 208.12C28.0547 211.246 71.4584 213.78 125 213.78Z" fill="#F5F5F5"/>
<path d="M148.291 193.655L154.631 189.995L158.501 197.74L153.206 200.81L148.291 193.655Z" fill="#FFC3BD"/>
<path opacity="0.2" d="M148.295 193.655L154.635 189.995L156.8 194.335L151.045 197.665L148.295 193.655Z" fill="black"/>
<path d="M150.571 168.676C155.071 158.276 162.456 146.176 159.426 135.036L139.246 131.846C139.246 131.846 135.076 156.776 135.901 167.001C136.761 177.631 149.311 196.501 149.311 196.501L156.536 192.261C156.536 192.261 153.396 176.131 150.571 168.676Z" fill="#D33A39"/>
<g opacity="0.4">
<path opacity="0.4" d="M150.571 168.676C155.071 158.276 162.456 146.176 159.426 135.036L139.246 131.846C139.246 131.846 135.076 156.776 135.901 167.001C136.761 177.631 149.311 196.501 149.311 196.501L156.536 192.261C156.536 192.261 153.396 176.131 150.571 168.676Z" fill="black"/>
</g>
<path d="M157.266 192.175L149.011 197.05L146.381 193.635L156.111 188.48L157.266 192.175Z" fill="#D33A39"/>
<path opacity="0.2" d="M152.047 165.391C154.477 160.126 157.277 154.516 158.862 148.891C154.097 149.691 150.057 153.561 152.047 165.391Z" fill="black"/>
<path d="M158.29 195.906C158.261 195.866 158.222 195.834 158.177 195.812C158.133 195.791 158.083 195.781 158.034 195.784C157.984 195.786 157.936 195.801 157.894 195.826C157.851 195.852 157.816 195.888 157.79 195.931C156.75 197.716 153.755 199.431 152.595 200.041C152.326 200.187 152.123 200.433 152.03 200.726C151.465 202.466 149.23 205.066 149.23 205.066C149.322 205.466 149.458 205.855 149.635 206.226C149.691 206.34 149.772 206.441 149.871 206.521C149.971 206.6 150.088 206.656 150.212 206.685C150.336 206.713 150.466 206.713 150.59 206.684C150.714 206.656 150.831 206.6 150.93 206.521L160.135 199.021C160.214 198.958 160.279 198.878 160.325 198.789C160.37 198.699 160.397 198.6 160.401 198.499C160.406 198.399 160.389 198.298 160.352 198.204C160.315 198.11 160.258 198.026 160.185 197.956C159.508 197.316 158.875 196.631 158.29 195.906Z" fill="#263238"/>
<path d="M160.195 197.186L167.51 197.256L166.845 205.896L160.73 205.846L160.195 197.186Z" fill="#FFC3BD"/>
<path d="M167.501 204.566C167.506 204.52 167.5 204.473 167.482 204.43C167.464 204.386 167.435 204.349 167.399 204.32C167.362 204.291 167.318 204.273 167.272 204.266C167.226 204.259 167.179 204.264 167.136 204.281C165.136 205.011 161.781 204.456 160.516 204.201C160.209 204.145 159.893 204.207 159.631 204.376C158.011 205.376 155.131 205.976 155.131 205.976C154.929 206.324 154.762 206.691 154.631 207.071C154.589 207.198 154.577 207.333 154.598 207.464C154.618 207.596 154.669 207.722 154.747 207.83C154.825 207.938 154.928 208.027 155.047 208.088C155.166 208.149 155.297 208.181 155.431 208.181H166.711C166.807 208.181 166.902 208.162 166.99 208.124C167.078 208.087 167.158 208.032 167.225 207.963C167.292 207.894 167.344 207.812 167.378 207.722C167.413 207.633 167.429 207.537 167.426 207.441C167.383 206.482 167.408 205.521 167.501 204.566Z" fill="#263238"/>
<path opacity="0.2" d="M160.195 197.19L167.515 197.255L167.14 202.095L160.495 202.035L160.195 197.19Z" fill="black"/>
<path d="M172.145 168.08C174.425 157.215 178.53 143.08 175.645 137.48L152 133.82C152 133.82 154.935 156.32 155.71 166.775C156.515 177.66 159.71 200.155 159.71 200.155H167.625C167.625 200.155 173.15 181.04 172.145 168.08Z" fill="#D33A39"/>
<path opacity="0.4" d="M172.145 168.08C174.425 157.215 178.53 143.08 175.645 137.48L152 133.82C152 133.82 154.935 156.32 155.71 166.775C156.515 177.66 159.71 200.155 159.71 200.155H167.625C167.625 200.155 173.15 181.04 172.145 168.08Z" fill="black"/>
<path d="M168.501 200.476H158.976L158.826 196.506L169.321 196.676L168.501 200.476Z" fill="#D33A39"/>
<path d="M158.251 99.5006L157.651 100.001L157.091 100.441C156.716 100.726 156.341 100.996 155.961 101.271C155.211 101.816 154.436 102.321 153.661 102.831C152.086 103.841 150.458 104.769 148.786 105.611C147.06 106.492 145.272 107.247 143.436 107.871C141.457 108.569 139.4 109.025 137.311 109.231L136.906 109.271C135.871 109.372 134.836 109.075 134.011 108.441C132.572 107.314 131.426 105.856 130.671 104.191C130.343 103.505 130.076 102.792 129.871 102.061C129.665 101.386 129.498 100.7 129.371 100.006C129.268 99.3389 129.188 98.6722 129.131 98.0056C129.086 97.3506 129.076 96.7006 129.076 96.0556C129.076 95.4106 129.126 94.7756 129.181 94.1456L129.296 93.1906L129.461 92.1906C129.553 91.6358 129.822 91.1257 130.228 90.7368C130.634 90.3479 131.156 90.1011 131.714 90.0335C132.272 89.9659 132.837 90.0811 133.324 90.3618C133.812 90.6426 134.195 91.0737 134.416 91.5906L134.626 92.0906C134.701 92.2756 134.791 92.5606 134.881 92.8006L135.141 93.5456C135.311 94.0456 135.501 94.5456 135.686 95.0456C136.032 95.9744 136.431 96.8826 136.881 97.7656C137.245 98.5176 137.697 99.2241 138.226 99.8706C138.506 100.259 138.893 100.557 139.341 100.726L136.041 99.9306C137.357 99.6099 138.639 99.1662 139.871 98.6056C140.536 98.3156 141.206 97.9806 141.871 97.6306C142.536 97.2806 143.221 96.9206 143.871 96.5306C145.211 95.7506 146.561 94.9206 147.871 94.0306C148.536 93.5956 149.191 93.1406 149.846 92.6956L150.816 92.0106L151.711 91.3756L151.916 91.2306C153.013 90.3905 154.398 90.0205 155.768 90.2019C157.137 90.3834 158.379 91.1014 159.219 92.1981C160.059 93.2947 160.429 94.6802 160.247 96.0497C160.066 97.4192 159.348 98.6605 158.251 99.5006Z" fill="#FFC3BD"/>
<path d="M134.426 91.97L131.841 93.655C128.676 94.35 128.486 90.125 128.486 90.125L127.576 88.125C127.436 87.7622 127.431 87.3617 127.56 86.9952C127.689 86.6287 127.944 86.3202 128.281 86.125L130.076 84.935C130.43 84.667 130.875 84.5479 131.315 84.603C131.756 84.6581 132.158 84.8831 132.436 85.23L133.506 86.82C133.815 87.2817 134.007 87.8121 134.066 88.365L134.426 91.97Z" fill="#FFC3BD"/>
<path d="M158.081 89.0002C153.131 88.7052 142.956 95.0901 142.956 95.0901C141.786 98.8201 143.826 105.89 146.811 107.64C146.811 107.64 154.386 104.385 157.946 101.22C162.256 97.4052 168.096 89.6002 158.081 89.0002Z" fill="#263238"/>
<path d="M158.541 89.0001C165.336 89.4048 172.065 90.5567 178.606 92.4351C182.381 93.5751 184.731 96.4001 183.041 104.23C179.611 120.115 179.891 133.09 176.956 138.54C176.956 138.54 142.616 140.66 138.021 132.74C138.951 113.125 148.351 98.1801 152.521 92.0001C153.182 91.0245 154.083 90.2358 155.138 89.7103C156.192 89.1848 157.365 88.9402 158.541 89.0001Z" fill="#263238"/>
<path d="M160.502 91.185C161.387 90.55 162.122 91.11 162.672 90.035C162.982 89.1703 162.982 88.2246 162.672 87.36L172.592 83.835C171.892 87.175 171.342 89.835 172.627 91.385C172.672 93.96 166.717 96.315 161.687 95.36C157.222 94.5 159.212 92.1 160.502 91.185Z" fill="#FFC3BD"/>
<path opacity="0.2" d="M162.727 87.6656L170.227 86.9756C167.957 89.5656 164.422 90.6306 162.762 89.6606C162.919 89.0033 162.907 88.317 162.727 87.6656Z" fill="black"/>
<path d="M162.001 78.2651C161.606 74.4201 165.351 69.5551 168.501 71.2351C171.651 72.9151 162.001 78.2651 162.001 78.2651Z" fill="#263238"/>
<path d="M175.205 80.4607C173.205 84.8357 171.775 87.7707 168.45 88.6707C161.85 90.4657 159.675 86.8407 160.31 81.9407C160.885 77.5357 164.035 71.1107 169.1 71.0407C170.222 71.0253 171.329 71.2946 172.318 71.8234C173.307 72.3522 174.145 73.1232 174.755 74.0642C175.365 75.0053 175.726 76.0857 175.805 77.2044C175.884 78.3231 175.678 79.4434 175.205 80.4607Z" fill="#FFC3BD"/>
<path d="M174.061 83.9652C171.796 83.6402 170.136 79.5502 172.506 77.4102C174.876 75.2702 174.061 73.2202 172.341 72.6102C170.621 72.0002 167.496 72.4402 166.781 70.9102C166.066 69.3802 170.831 68.2702 173.596 70.0302C176.361 71.7902 176.221 70.7252 176.221 70.7252C176.301 70.8216 176.353 70.9386 176.369 71.0629C176.385 71.1872 176.366 71.3136 176.314 71.4275C176.262 71.5415 176.179 71.6383 176.074 71.7069C175.969 71.7755 175.847 71.813 175.721 71.8152C177.896 73.2602 180.306 76.7402 178.061 78.1652C180.871 79.7602 176.501 83.5402 174.061 83.9652Z" fill="#263238"/>
<path d="M177.346 77.9254C177.723 78.0885 178.146 78.1127 178.54 77.9938C178.933 77.8748 179.272 77.6203 179.496 77.2754C179.496 77.2754 179.971 79.1354 177.346 77.9254Z" fill="#263238"/>
<path d="M166.247 82.5652C166.461 82.4738 166.667 82.3634 166.862 82.2352C166.873 82.2245 166.881 82.2117 166.887 82.1975C166.893 82.1834 166.896 82.1681 166.896 82.1527C166.896 82.1374 166.893 82.1221 166.887 82.108C166.881 82.0938 166.873 82.081 166.862 82.0702C166.841 82.0437 166.811 82.0256 166.778 82.0192C166.745 82.0127 166.711 82.0185 166.682 82.0352C166.245 82.3263 165.749 82.5156 165.23 82.5892C164.711 82.6628 164.181 82.6187 163.682 82.4602C163.653 82.449 163.621 82.4495 163.593 82.4617C163.565 82.4739 163.543 82.4967 163.532 82.5252C163.52 82.5538 163.521 82.5856 163.533 82.6137C163.545 82.6418 163.568 82.664 163.597 82.6752C164.462 82.9722 165.408 82.9329 166.247 82.5652Z" fill="#263238"/>
<path opacity="0.2" d="M168.91 79.1154C169.472 78.9978 170.058 79.1075 170.54 79.4204C169.982 79.4251 169.429 79.3215 168.91 79.1154Z" fill="black"/>
<path opacity="0.2" d="M168.865 79.5C169.124 79.5004 169.381 79.5575 169.615 79.6671C169.85 79.7768 170.058 79.9365 170.225 80.135C169.732 80.0228 169.268 79.8063 168.865 79.5Z" fill="black"/>
<path d="M174.925 85.2007C174.481 85.6 173.962 85.9069 173.398 86.1034C172.834 86.3 172.236 86.3824 171.64 86.3457C170.04 86.2357 170.25 84.9757 171.14 83.7457C171.93 82.6307 173.225 81.0457 174.64 81.7457C176.055 82.4457 176 84.2057 174.925 85.2007Z" fill="#FFC3BD"/>
<path d="M168.001 79.0006C167.861 79.3656 167.551 79.5856 167.316 79.5006C167.081 79.4156 166.996 79.0356 167.136 78.6706C167.276 78.3056 167.581 78.0856 167.821 78.1706C168.061 78.2556 168.121 78.6106 168.001 79.0006Z" fill="#263238"/>
<path d="M163.756 77.3307C163.621 77.6957 163.311 77.9157 163.076 77.8307C162.841 77.7457 162.756 77.3656 162.896 77.0006C163.036 76.6356 163.341 76.4156 163.576 76.5006C163.811 76.5856 163.896 76.9656 163.756 77.3307Z" fill="#263238"/>
<path d="M165.076 77.9258L164.011 81.1258C163.627 81.2227 163.223 81.2079 162.848 81.0829C162.472 80.958 162.14 80.7283 161.891 80.4208C162.951 78.7758 165.076 77.9258 165.076 77.9258Z" fill="#ED847E"/>
<path d="M169.925 76.8449C169.963 76.8575 170.003 76.8575 170.04 76.8449C170.1 76.8329 170.152 76.7977 170.186 76.7471C170.22 76.6965 170.232 76.6346 170.22 76.5749C170.159 76.2142 170.013 75.8733 169.794 75.5803C169.575 75.2873 169.289 75.0506 168.96 74.8899C168.933 74.8778 168.903 74.8714 168.872 74.8711C168.842 74.8708 168.812 74.8767 168.784 74.8884C168.756 74.9001 168.73 74.9173 168.709 74.9391C168.688 74.9608 168.671 74.9866 168.66 75.0149C168.639 75.0714 168.639 75.1341 168.663 75.19C168.686 75.2459 168.73 75.2907 168.785 75.3149C169.047 75.4436 169.274 75.6327 169.448 75.8666C169.622 76.1005 169.737 76.3725 169.785 76.6599C169.79 76.7004 169.806 76.7389 169.83 76.7714C169.855 76.8039 169.888 76.8293 169.925 76.8449Z" fill="#263238"/>
<path d="M162.171 75.6205C162.207 75.6309 162.245 75.6318 162.282 75.623C162.319 75.6143 162.353 75.5962 162.381 75.5705C162.59 75.3729 162.843 75.2281 163.12 75.1481C163.397 75.0681 163.688 75.0552 163.971 75.1105C164 75.1188 164.03 75.1212 164.06 75.1177C164.09 75.1141 164.118 75.1045 164.144 75.0896C164.171 75.0747 164.193 75.0547 164.212 75.0308C164.23 75.0069 164.243 74.9796 164.251 74.9505C164.259 74.9213 164.262 74.8907 164.258 74.8605C164.254 74.8303 164.245 74.8012 164.23 74.7747C164.215 74.7482 164.195 74.7249 164.171 74.7061C164.147 74.6874 164.12 74.6736 164.091 74.6655C163.737 74.5938 163.371 74.6072 163.023 74.7046C162.675 74.8019 162.356 74.9805 162.091 75.2255C162.048 75.2686 162.023 75.3271 162.023 75.388C162.023 75.4489 162.048 75.5074 162.091 75.5505C162.111 75.58 162.139 75.6041 162.171 75.6205Z" fill="#263238"/>
<path d="M109.221 104.5L107.051 110.425C106.873 110.936 106.56 111.389 106.146 111.737C105.731 112.085 105.23 112.314 104.696 112.4L75.8609 116.765C74.0009 117.05 72.9009 118.96 73.4059 121.03L83.5009 162.6C84.0009 164.675 85.9209 166.125 87.7809 165.845L156.416 155.45C158.276 155.165 159.376 153.26 158.876 151.185L146.711 101.09C146.211 99.0151 144.291 97.5651 142.431 97.8451L111.576 102.5C111.039 102.589 110.536 102.821 110.121 103.174C109.706 103.526 109.395 103.985 109.221 104.5Z" fill="#D33A39"/>
<path opacity="0.3" d="M109.221 104.5L107.051 110.425C106.873 110.936 106.56 111.389 106.146 111.737C105.731 112.085 105.23 112.314 104.696 112.4L75.8609 116.765C74.0009 117.05 72.9009 118.96 73.4059 121.03L83.5009 162.6C84.0009 164.675 85.9209 166.125 87.7809 165.845L156.416 155.45C158.276 155.165 159.376 153.26 158.876 151.185L146.711 101.09C146.211 99.0151 144.291 97.5651 142.431 97.8451L111.576 102.5C111.039 102.589 110.536 102.821 110.121 103.174C109.706 103.526 109.395 103.985 109.221 104.5Z" fill="black"/>
<path d="M94.4267 43.7054C95.1032 43.7066 95.7791 43.7433 96.4517 43.8154C99.0114 40.2684 102.48 37.4768 106.492 35.7345C110.504 33.9922 114.912 33.3635 119.251 33.9146C123.59 34.4657 127.701 36.1763 131.15 38.8662C134.6 41.5562 137.26 45.1261 138.852 49.2004C142.984 49.9081 146.701 52.1423 149.264 55.4603C151.827 58.7782 153.051 62.938 152.692 67.1155C152.334 71.293 150.419 75.1834 147.328 78.0161C144.237 80.8488 140.195 82.4172 136.002 82.4104H94.4267C89.348 82.3288 84.5049 80.254 80.9422 76.6335C77.3795 73.0131 75.3828 68.1373 75.3828 63.0579C75.3828 57.9785 77.3795 53.1027 80.9422 49.4823C84.5049 45.8619 89.348 43.7871 94.4267 43.7054Z" fill="#D33A39"/>
<path d="M96.2207 75.6406V123.891H131.601V86.1456L121.101 75.6406H96.2207Z" fill="#D33A39"/>
<path opacity="0.6" d="M96.2207 75.6406V123.891H131.601V86.1456L121.101 75.6406H96.2207Z" fill="white"/>
<path opacity="0.4" d="M121.102 86.1456V75.6406L131.602 86.1456H121.102Z" fill="#D33A39"/>
<path d="M97.3601 165.665L94.8535 166.044L94.9289 166.543L97.4355 166.165L97.3601 165.665Z" fill="#D33A39"/>
<path d="M108.914 163.927L100.158 165.25L100.234 165.749L108.989 164.427L108.914 163.927Z" fill="#D33A39"/>
<path d="M121.841 109.235L118.576 114.68C118.289 115.16 117.901 115.571 117.439 115.885C116.977 116.199 116.452 116.409 115.901 116.5L87.071 120.87C86.1518 121.03 85.3207 121.514 84.7295 122.236C84.1383 122.957 83.8264 123.868 83.851 124.8L85.526 162.72C85.5322 163.153 85.6319 163.579 85.8182 163.97C86.0046 164.36 86.2733 164.706 86.6057 164.982C86.9382 165.259 87.3266 165.461 87.7444 165.574C88.1622 165.686 88.5993 165.707 89.026 165.635L157.661 155.235C158.58 155.076 159.411 154.591 160.002 153.87C160.594 153.148 160.905 152.238 160.881 151.305L158.881 105.615C158.875 105.183 158.775 104.756 158.589 104.366C158.402 103.975 158.134 103.63 157.801 103.353C157.469 103.076 157.08 102.874 156.663 102.762C156.245 102.649 155.808 102.628 155.381 102.7L124.501 107.395C123.95 107.489 123.427 107.703 122.967 108.021C122.508 108.339 122.123 108.753 121.841 109.235Z" fill="#D33A39"/>
<path d="M122.845 68.6458C122.722 68.6464 122.602 68.6104 122.499 68.5423C122.396 68.4742 122.316 68.3772 122.269 68.2635C122.222 68.1498 122.21 68.0247 122.234 67.904C122.258 67.7833 122.318 67.6725 122.405 67.5858C124.079 65.9059 125.218 63.7676 125.678 61.441C126.137 59.1144 125.897 56.7037 124.988 54.5134C124.078 52.3231 122.54 50.4515 120.568 49.1347C118.595 47.818 116.277 47.1153 113.905 47.1153C111.533 47.1153 109.215 47.818 107.243 49.1347C105.27 50.4515 103.732 52.3231 102.823 54.5134C101.913 56.7037 101.673 59.1144 102.133 61.441C102.592 63.7676 103.731 65.9059 105.405 67.5858C105.463 67.6434 105.509 67.712 105.541 67.7875C105.572 67.863 105.588 67.944 105.588 68.0258C105.588 68.1076 105.572 68.1886 105.541 68.2641C105.509 68.3396 105.463 68.4082 105.405 68.4658C105.287 68.5806 105.13 68.6449 104.965 68.6449C104.801 68.6449 104.643 68.5806 104.525 68.4658C102.671 66.6121 101.409 64.2503 100.897 61.679C100.386 59.1078 100.648 56.4426 101.652 54.0206C102.655 51.5985 104.354 49.5283 106.533 48.0718C108.713 46.6153 111.276 45.8379 113.898 45.8379C116.519 45.8379 119.082 46.6153 121.262 48.0718C123.442 49.5283 125.14 51.5985 126.144 54.0206C127.147 56.4426 127.409 59.1078 126.898 61.679C126.386 64.2503 125.124 66.6121 123.27 68.4658C123.157 68.5782 123.005 68.6427 122.845 68.6458Z" fill="white"/>
<path d="M119.226 72.3605V58.5255C119.226 57.9274 118.988 57.3539 118.566 56.931C118.143 56.5081 117.569 56.2705 116.971 56.2705H110.851C110.253 56.2705 109.679 56.5081 109.256 56.931C108.834 57.3539 108.596 57.9274 108.596 58.5255V72.3605H106.291L113.911 78.9255L121.526 72.3605H119.226Z" fill="white"/>
<path d="M180.902 106.736L180.597 107.421L180.312 108.046C180.117 108.461 179.912 108.861 179.712 109.266C179.307 110.071 178.867 110.851 178.427 111.636C177.53 113.206 176.554 114.73 175.502 116.201C174.962 116.941 174.412 117.701 173.822 118.406C173.232 119.111 172.607 119.836 171.947 120.536C170.579 122.01 169.055 123.331 167.402 124.476L167.057 124.711C166.88 124.83 166.69 124.929 166.492 125.006C164.731 125.651 162.876 125.999 161.002 126.036C159.424 126.092 157.845 126.03 156.277 125.851C154.782 125.676 153.296 125.426 151.827 125.101C150.365 124.779 148.922 124.373 147.507 123.886C146.94 123.686 146.459 123.298 146.144 122.787C145.828 122.276 145.697 121.672 145.773 121.076C145.848 120.48 146.125 119.928 146.558 119.511C146.991 119.094 147.553 118.838 148.152 118.786H148.257L152.312 118.441C153.662 118.321 154.992 118.191 156.282 118.016C156.927 117.931 157.562 117.846 158.177 117.741C158.792 117.636 159.392 117.506 159.962 117.381C160.899 117.195 161.804 116.871 162.647 116.421L161.742 116.951C162.72 116.047 163.62 115.062 164.432 114.006C164.872 113.451 165.297 112.861 165.712 112.256C166.127 111.651 166.547 111.031 166.952 110.401C167.747 109.126 168.537 107.811 169.277 106.466C169.657 105.796 170.012 105.111 170.377 104.436L171.377 102.476L171.497 102.241C172.125 101.048 173.19 100.145 174.47 99.7219C175.749 99.2984 177.143 99.3872 178.358 99.9697C179.574 100.552 180.516 101.583 180.988 102.846C181.459 104.108 181.423 105.504 180.887 106.741L180.902 106.736Z" fill="#FFC3BD"/>
<path d="M182.5 97.8951C184.905 106.535 178.8 115.125 178.8 115.125C175.565 116.05 167.04 112.73 165.23 109.55C165.23 109.55 168.205 101.38 171.73 97.0501C175 93.0001 181.085 92.8301 182.5 97.8951Z" fill="#263238"/>
<path d="M149.156 119.001L149.656 122.051C148.986 125.221 145.056 123.661 145.056 123.661H142.866C142.479 123.638 142.113 123.479 141.833 123.211C141.553 122.944 141.377 122.586 141.336 122.201L140.986 120.071C140.887 119.637 140.962 119.183 141.193 118.804C141.425 118.424 141.795 118.151 142.226 118.041L144.111 117.721C144.659 117.626 145.223 117.669 145.751 117.846L149.156 119.001Z" fill="#FFC3BD"/>
</g>
</svg>
