<svg width="250" height="250" viewBox="0 0 250 250" fill="none" xmlns="http://www.w3.org/2000/svg">
<path d="M250 191.2H0V191.325H250V191.2Z" fill="#EBEBEB"/>
<path d="M39.2305 195.96H26.2305V196.085H39.2305V195.96Z" fill="#EBEBEB"/>
<path d="M100.214 194.605H73.1641V194.73H100.214V194.605Z" fill="#EBEBEB"/>
<path d="M52.8905 200.605H39.7305V200.73H52.8905V200.605Z" fill="#EBEBEB"/>
<path d="M224.951 199.765H215.336V199.89H224.951V199.765Z" fill="#EBEBEB"/>
<path d="M210.879 199.765H195.734V199.89H210.879V199.765Z" fill="#EBEBEB"/>
<path d="M156.395 197.655H129.115V197.78H156.395V197.655Z" fill="#EBEBEB"/>
<path d="M118.5 168.9H21.9555C21.1991 168.899 20.4742 168.597 19.9399 168.062C19.4056 167.527 19.1055 166.801 19.1055 166.045V30.33C19.1121 29.578 19.4151 28.859 19.9487 28.3291C20.4823 27.7992 21.2035 27.5013 21.9555 27.5H118.5C119.258 27.5 119.984 27.8008 120.519 28.3362C121.055 28.8716 121.355 29.5978 121.355 30.355V166.045C121.355 166.802 121.055 167.528 120.519 168.064C119.984 168.599 119.258 168.9 118.5 168.9ZM21.9555 27.6C21.2323 27.6013 20.5392 27.8895 20.0283 28.4014C19.5174 28.9132 19.2305 29.6068 19.2305 30.33V166.045C19.2305 166.768 19.5174 167.462 20.0283 167.974C20.5392 168.485 21.2323 168.774 21.9555 168.775H118.5C119.224 168.774 119.918 168.486 120.429 167.974C120.941 167.462 121.229 166.769 121.23 166.045V30.33C121.229 29.6064 120.941 28.9127 120.429 28.4011C119.918 27.8894 119.224 27.6013 118.5 27.6H21.9555Z" fill="#EBEBEB"/>
<path d="M226.655 168.9H130.105C129.348 168.899 128.623 168.597 128.088 168.062C127.553 167.527 127.251 166.802 127.25 166.045V30.33C127.258 29.5776 127.562 28.8585 128.096 28.3288C128.631 27.7991 129.353 27.5013 130.105 27.5H226.655C227.406 27.5026 228.126 27.8011 228.659 28.3309C229.191 28.8606 229.493 29.5789 229.5 30.33V166.045C229.5 166.8 229.201 167.525 228.667 168.06C228.134 168.595 227.41 168.897 226.655 168.9ZM130.105 27.6C129.381 27.6013 128.688 27.8894 128.176 28.4011C127.664 28.9127 127.376 29.6064 127.375 30.33V166.045C127.376 166.769 127.664 167.462 128.176 167.974C128.688 168.486 129.381 168.774 130.105 168.775H226.655C227.379 168.774 228.072 168.486 228.584 167.974C229.096 167.462 229.384 166.769 229.385 166.045V30.33C229.384 29.6064 229.096 28.9127 228.584 28.4011C228.072 27.8894 227.379 27.6013 226.655 27.6H130.105Z" fill="#EBEBEB"/>
<path d="M201.686 94.5002C208.752 94.5002 214.481 88.7716 214.481 81.7052C214.481 74.6387 208.752 68.9102 201.686 68.9102C194.619 68.9102 188.891 74.6387 188.891 81.7052C188.891 88.7716 194.619 94.5002 201.686 94.5002Z" fill="#FAFAFA"/>
<path d="M67.0752 62.8849C66.4622 62.916 65.8564 63.0321 65.2752 63.2299C65.1352 62.0299 63.6902 61.2949 61.1252 61.3799C59.7002 61.4451 58.2875 61.675 56.9152 62.0649C57.8102 60.2599 56.9152 58.9799 54.4152 58.9799C52.7473 59.0447 51.106 59.4194 49.5752 60.0849C49.2102 58.8749 47.8352 58.1299 45.5252 58.1299C41.8402 58.1299 36.8652 60.0199 33.0602 62.6799C31.2302 62.7249 27.7102 63.7749 27.1152 64.7149H67.7852L67.9752 64.5399C68.9452 63.5799 68.5552 62.8349 67.0752 62.8849Z" fill="#E6E6E6"/>
<path d="M226.585 88.1204C225.904 88.1555 225.231 88.2834 224.585 88.5004C224.43 87.1754 222.835 86.3654 219.995 86.4554C218.419 86.5271 216.857 86.7821 215.34 87.2153C216.34 85.2153 215.34 83.8054 212.55 83.8054C210.706 83.8761 208.892 84.2899 207.2 85.0254C206.795 83.6854 205.275 82.8604 202.7 82.8604C198.63 82.8604 193.125 84.9553 188.915 87.8953C186.89 87.9453 183.005 89.1053 182.34 90.1453H227.34C227.41 90.0803 227.48 90.0203 227.55 89.9503C228.65 88.8903 228.22 88.0704 226.585 88.1204Z" fill="#F5F5F5"/>
<path d="M203.035 57.4652C202.041 57.5342 201.062 57.7499 200.13 58.1052C200.63 55.8752 198.93 54.5102 195.05 54.6602C192.765 54.8019 190.507 55.2337 188.33 55.9452C190.765 52.5852 190.18 50.2052 186.42 50.2052C184.28 50.2052 181.465 50.9752 178.515 52.2602C178.71 50.0002 177.1 48.6152 173.64 48.6152C169.355 48.6152 163.205 50.7452 157.24 54.0252C157.08 53.0702 156.18 52.5252 154.525 52.5252C152.235 52.5252 149.025 53.6002 145.82 55.2902C145.615 55.2902 145.4 55.2902 145.17 55.2902C141.115 55.5702 135.41 57.7552 132.105 60.2502H203.675C205.4 58.6152 205.16 57.3852 203.035 57.4652Z" fill="#F0F0F0"/>
<path d="M77.0508 85.3551C76.6399 85.3805 76.2353 85.4681 75.8508 85.6151C76.0608 84.7001 75.3508 84.1151 73.7558 84.1951C72.8136 84.2526 71.8827 84.4307 70.9858 84.7251C71.9858 83.3401 71.7458 82.3601 70.1958 82.3601C69.0648 82.4287 67.9577 82.7157 66.9358 83.2051C67.0158 82.2751 66.3508 81.7051 64.9358 81.7051C63.1708 81.7051 60.6308 82.5801 58.1758 83.9351C58.1058 83.5401 57.7358 83.3101 57.0558 83.3101C55.7881 83.4204 54.5604 83.8097 53.4608 84.4501H53.1958C51.2536 84.6686 49.398 85.3737 47.8008 86.5001H77.3008C78.0008 85.8251 77.9258 85.3201 77.0508 85.3551Z" fill="#FAFAFA"/>
<path d="M33.7257 96.1145C30.8807 95.4045 29.1057 93.9395 27.0957 96.4145C29.8957 94.4995 33.5957 97.2995 33.5957 97.2995C33.5957 97.2995 37.7507 95.1795 40.1807 97.5495C38.6507 94.7645 36.6507 95.9045 33.7257 96.1145Z" fill="#E0E0E0"/>
<path d="M46.84 104.27C45.03 103.82 43.905 102.885 42.625 104.46C44.405 103.24 46.775 105.02 46.775 105.02C46.775 105.02 49.41 103.675 50.955 105.18C49.965 103.41 48.695 104.135 46.84 104.27Z" fill="#E0E0E0"/>
<path d="M197.05 40.1748C194.67 39.5798 193.19 38.3548 191.51 40.4248C193.85 38.8248 196.965 41.1648 196.965 41.1648C196.965 41.1648 200.43 39.3948 202.465 41.3748C201.165 39.0448 199.5 39.9998 197.05 40.1748Z" fill="#E0E0E0"/>
<path d="M65.2941 128.265H94.0991V191.2H44.4141V144.115L65.2941 128.265Z" fill="#E0E0E0"/>
<path d="M73.2205 191.2H114.98V144.115H73.2205V191.2Z" fill="#EBEBEB"/>
<path d="M73.2205 145.365H114.98V144.115H73.2205V145.365Z" fill="#E0E0E0"/>
<path d="M94.1007 128.265L114.981 144.115H73.2207L94.1007 128.265Z" fill="#EBEBEB"/>
<path d="M79.6704 161.185H108.525V152.27H79.6704V161.185Z" fill="#E0E0E0"/>
<path d="M104.725 182.05H108.525V170.355H104.725V182.05Z" fill="#E0E0E0"/>
<path d="M88.9049 191.2H99.2949V173.05H88.9049V191.2Z" fill="#E0E0E0"/>
<path d="M79.6707 182.05H83.4707V170.355H79.6707V182.05Z" fill="#E0E0E0"/>
<path d="M50.5395 140.43H58.4395V126.5H50.5395V140.43Z" fill="#E0E0E0"/>
<path d="M205.205 155.4L186.265 155.395L180.39 159.855V158.06H176.705V162.655L172.535 165.82V166.64V191.2H182.85H186.265H218.935V165.82L205.205 155.4Z" fill="#F5F5F5"/>
<path d="M154.24 131.085H178.3L185.76 136.75V134.465H190.44V140.3L195.735 144.32V145.365V191.2H182.635H178.3H136.805V144.32L154.24 131.085Z" fill="#F0F0F0"/>
<path d="M125 213.78C178.541 213.78 221.945 211.246 221.945 208.12C221.945 204.994 178.541 202.46 125 202.46C71.4584 202.46 28.0547 204.994 28.0547 208.12C28.0547 211.246 71.4584 213.78 125 213.78Z" fill="#F5F5F5"/>
<path d="M95.2596 108.618L88.1172 110.775L88.2622 111.255L95.4046 109.098L95.2596 108.618Z" fill="#D33A39"/>
<path d="M101.11 106.847L97.3086 107.995L97.4536 108.475L101.255 107.327L101.11 106.847Z" fill="#D33A39"/>
<path d="M74.8833 112.902L110.773 101.964L101.758 72.3823L65.8675 83.3207L74.8833 112.902Z" fill="#D33A39"/>
<path d="M115.179 68.3048L101.744 72.3994L110.76 101.981L124.195 97.8864L115.179 68.3048Z" fill="#D33A39"/>
<path opacity="0.3" d="M115.179 68.3048L101.744 72.3994L110.76 101.981L124.195 97.8864L115.179 68.3048Z" fill="black"/>
<path opacity="0.3" d="M100.596 98.5874L117.166 93.582L114.35 84.2604L97.7805 89.2658L100.596 98.5874Z" fill="white"/>
<path d="M72.9825 92.3203L79.1953 90.4268L77.3018 84.2139L71.0889 86.1074L72.9825 92.3203Z" fill="white"/>
<path d="M80.5938 89.998L86.8066 88.1045L84.9131 81.8916L78.7003 83.7852L80.5938 89.998Z" fill="white"/>
<path d="M85.3397 57.6992C86.5542 57.5026 87.6415 56.8331 88.3639 55.8371C89.0862 54.8412 89.3849 53.5998 89.1947 52.3842L88.0847 45.4142C87.8868 44.2003 87.217 43.1138 86.2214 42.3917C85.2258 41.6696 83.985 41.3703 82.7697 41.5592C81.5558 41.7571 80.4693 42.4269 79.7472 43.4225C79.025 44.4181 78.7258 45.6589 78.9147 46.8742L80.0247 53.8742C80.2283 55.0832 80.9008 56.1631 81.8959 56.8793C82.8911 57.5954 84.1286 57.8901 85.3397 57.6992Z" fill="#D33A39"/>
<path opacity="0.3" d="M81.0899 49.9293C81.1869 50.5085 81.4531 51.046 81.8551 51.4741C82.257 51.9022 82.7766 52.2018 83.3485 52.3352C83.9204 52.4685 84.5189 52.4296 85.0687 52.2234C85.6186 52.0172 86.0951 51.6529 86.4382 51.1764C86.7814 50.6999 86.9758 50.1324 86.9971 49.5456C87.0183 48.9588 86.8655 48.3788 86.5577 47.8787C86.2499 47.3786 85.801 46.9807 85.2676 46.7353C84.7341 46.4898 84.1399 46.4077 83.5599 46.4993C82.7789 46.6294 82.081 47.0629 81.6183 47.7055C81.1556 48.348 80.9657 49.1474 81.0899 49.9293Z" fill="black"/>
<path d="M82.121 49.7649C82.181 50.1417 82.3514 50.4923 82.6106 50.7723C82.8699 51.0524 83.2063 51.2493 83.5774 51.3382C83.9485 51.4271 84.3376 51.4039 84.6956 51.2717C85.0536 51.1395 85.3643 50.9041 85.5886 50.5954C85.8128 50.2866 85.9405 49.9183 85.9555 49.537C85.9704 49.1557 85.872 48.7785 85.6727 48.4531C85.4733 48.1277 85.182 47.8687 84.8355 47.7088C84.489 47.5489 84.1029 47.4954 83.726 47.5549C83.2205 47.636 82.7678 47.9141 82.467 48.3283C82.1662 48.7426 82.0418 49.2591 82.121 49.7649Z" fill="#263238"/>
<path d="M83.9995 48.8049C84.024 48.96 84.1091 49.0991 84.2362 49.1915C84.3633 49.2838 84.5218 49.3219 84.677 49.2974C84.8321 49.2729 84.9712 49.1877 85.0635 49.0606C85.1559 48.9336 85.194 48.775 85.1695 48.6199C85.1573 48.5431 85.1302 48.4694 85.0895 48.4031C85.0489 48.3367 84.9956 48.2791 84.9327 48.2333C84.8698 48.1876 84.7985 48.1547 84.7229 48.1365C84.6472 48.1183 84.5688 48.1152 84.492 48.1274C84.4151 48.1395 84.3415 48.1667 84.2751 48.2073C84.2088 48.2479 84.1511 48.3012 84.1054 48.3641C84.0597 48.427 84.0268 48.4984 84.0086 48.574C83.9904 48.6496 83.9873 48.7281 83.9995 48.8049Z" fill="white"/>
<path d="M83.0542 50.4445C83.0597 50.4834 83.0729 50.5208 83.0931 50.5546C83.1132 50.5884 83.1399 50.6177 83.1716 50.641C83.2033 50.6643 83.2393 50.6811 83.2775 50.6902C83.3157 50.6994 83.3554 50.7008 83.3942 50.6945C83.4714 50.681 83.5402 50.6379 83.5859 50.5743C83.6317 50.5108 83.6508 50.4319 83.6392 50.3545C83.6273 50.2769 83.585 50.2072 83.5217 50.1608C83.4584 50.1144 83.3793 50.095 83.3017 50.107C83.2241 50.1189 83.1545 50.1612 83.1081 50.2245C83.0617 50.2877 83.0423 50.3669 83.0542 50.4445Z" fill="white"/>
<path d="M109.366 45.9092L96.6855 47.1592L96.9806 49.0092L109.631 47.5892L109.366 45.9092Z" fill="#D33A39"/>
<path opacity="0.3" d="M109.366 45.9092L96.6855 47.1592L96.9806 49.0092L109.631 47.5892L109.366 45.9092Z" fill="white"/>
<path d="M110.13 50.4098C110.681 50.32 111.175 50.0168 111.504 49.5658C111.834 49.1148 111.972 48.5522 111.89 47.9998L111.39 44.8098C111.3 44.2543 110.995 43.7569 110.539 43.4262C110.084 43.0955 109.516 42.9584 108.96 43.0448C108.405 43.1346 107.907 43.4405 107.577 43.8958C107.246 44.3511 107.109 44.9188 107.195 45.4748L107.695 48.6648C107.79 49.2177 108.098 49.711 108.554 50.0377C109.01 50.3644 109.576 50.4981 110.13 50.4098Z" fill="#D33A39"/>
<path d="M96.7299 45.9998L88.0898 45.4648L89.0898 51.6698L97.2148 50.3748C97.3455 50.3548 97.4708 50.309 97.5836 50.2402C97.6965 50.1714 97.7945 50.0809 97.8722 49.974C97.9498 49.867 98.0055 49.7458 98.036 49.6172C98.0665 49.4886 98.0712 49.3553 98.0499 49.2248L97.6698 46.8448C97.6344 46.6173 97.5215 46.409 97.3503 46.255C97.179 46.101 96.9599 46.0109 96.7299 45.9998Z" fill="#D33A39"/>
<path d="M107.94 41.6845C107.964 41.8388 108.034 41.9823 108.141 42.0968C108.247 42.2114 108.385 42.2918 108.537 42.328C108.689 42.3642 108.848 42.3546 108.994 42.3002C109.141 42.2459 109.268 42.1493 109.36 42.0227C109.451 41.8961 109.503 41.7452 109.509 41.5891C109.515 41.433 109.474 41.2786 109.393 41.1455C109.311 41.0124 109.191 40.9066 109.049 40.8415C108.907 40.7763 108.749 40.7548 108.595 40.7795C108.388 40.8127 108.203 40.9266 108.08 41.0963C107.957 41.2661 107.906 41.4776 107.94 41.6845Z" fill="#D33A39"/>
<path d="M110.814 41.8396L117.129 40.8396C117.287 40.8126 117.428 40.7246 117.522 40.5946C117.615 40.4645 117.654 40.3029 117.629 40.1446C117.617 40.0663 117.59 39.9912 117.548 39.9237C117.507 39.8561 117.453 39.7974 117.389 39.7509C117.324 39.7044 117.252 39.6711 117.175 39.6528C117.098 39.6346 117.018 39.6318 116.939 39.6446L110.624 40.6446C110.467 40.6716 110.326 40.7596 110.232 40.8897C110.138 41.0197 110.1 41.1813 110.124 41.3396C110.153 41.4959 110.24 41.6353 110.369 41.7285C110.497 41.8217 110.657 41.8615 110.814 41.8396Z" fill="#D33A39"/>
<path d="M100.501 43.4997L106.816 42.4997C106.894 42.4875 106.969 42.46 107.037 42.4186C107.104 42.3773 107.163 42.323 107.209 42.2588C107.256 42.1947 107.289 42.122 107.307 42.0449C107.326 41.9678 107.328 41.8878 107.316 41.8097C107.303 41.7314 107.276 41.6563 107.235 41.5887C107.193 41.5211 107.139 41.4624 107.075 41.4159C107.011 41.3694 106.938 41.3361 106.861 41.3179C106.784 41.2996 106.704 41.2968 106.626 41.3097L100.311 42.3097C100.232 42.3218 100.157 42.3494 100.09 42.3907C100.022 42.432 99.9634 42.4863 99.9169 42.5505C99.8704 42.6146 99.8371 42.6874 99.8188 42.7645C99.8006 42.8416 99.7978 42.9215 99.8106 42.9997C99.8364 43.1572 99.9234 43.2981 100.053 43.3918C100.182 43.4854 100.343 43.5242 100.501 43.4997Z" fill="#D33A39"/>
<path d="M58.8457 53.965L71.2807 51.21L71.5757 53.06L59.1107 55.645L58.8457 53.965Z" fill="#D33A39"/>
<path opacity="0.3" d="M58.8457 53.965L71.2807 51.21L71.5757 53.06L59.1107 55.645L58.8457 53.965Z" fill="white"/>
<path d="M59.5003 58.4992C58.9441 58.587 58.3757 58.4505 57.9201 58.1195C57.4645 57.7886 57.1589 57.2904 57.0703 56.7342L56.5703 53.5442C56.4838 52.9889 56.6202 52.4219 56.9499 51.9667C57.2795 51.5116 57.7757 51.2051 58.3303 51.1142C58.887 51.0277 59.4553 51.1646 59.9114 51.4952C60.3675 51.8258 60.6744 52.3233 60.7653 52.8792L61.2653 56.0692C61.3532 56.6255 61.2166 57.1938 60.8857 57.6494C60.5547 58.1051 60.0565 58.4107 59.5003 58.4992Z" fill="#D33A39"/>
<path d="M70.8801 50.1148L78.9251 46.9248L79.9251 53.1298L71.8001 54.4248C71.6697 54.4462 71.5364 54.4415 71.4078 54.411C71.2792 54.3805 71.1579 54.3248 71.051 54.2471C70.944 54.1695 70.8536 54.0714 70.7848 53.9586C70.7159 53.8458 70.6702 53.7204 70.6501 53.5898L70.2701 51.2098C70.2318 50.9851 70.2713 50.754 70.3823 50.5549C70.4932 50.3557 70.6689 50.2005 70.8801 50.1148Z" fill="#D33A39"/>
<path d="M58.8852 49.5C58.9116 49.6551 58.8911 49.8146 58.8263 49.9581C58.7615 50.1015 58.6554 50.2223 58.5214 50.305C58.3875 50.3877 58.2319 50.4285 58.0747 50.4221C57.9174 50.4158 57.7656 50.3627 57.6388 50.2695C57.5119 50.1763 57.4158 50.0474 57.3627 49.8992C57.3096 49.751 57.302 49.5904 57.3408 49.4379C57.3797 49.2853 57.4632 49.1479 57.5806 49.0431C57.6981 48.9384 57.8442 48.8711 58.0002 48.85C58.2032 48.8224 58.4089 48.8748 58.574 48.9961C58.7392 49.1173 58.8507 49.298 58.8852 49.5Z" fill="#D33A39"/>
<path d="M56.2001 50.5448L49.8851 51.5448C49.7268 51.5695 49.5652 51.5308 49.4351 51.4373C49.3051 51.3437 49.2171 51.2027 49.1901 51.0448C49.1669 50.8873 49.2062 50.727 49.2997 50.5981C49.3931 50.4691 49.5332 50.3819 49.6901 50.3548L56.0051 49.3548C56.1628 49.3303 56.3238 49.3691 56.4531 49.4628C56.5823 49.5564 56.6693 49.6973 56.6951 49.8548C56.708 49.9327 56.7054 50.0122 56.6874 50.0891C56.6695 50.1659 56.6366 50.2384 56.5907 50.3025C56.5447 50.3666 56.4865 50.421 56.4195 50.4625C56.3525 50.5041 56.2779 50.5321 56.2001 50.5448Z" fill="#D33A39"/>
<path d="M66.5009 48.9001L60.1859 49.9001C60.0276 49.9247 59.866 49.886 59.7359 49.7925C59.6059 49.6989 59.5179 49.558 59.4909 49.4001C59.4677 49.2425 59.507 49.0822 59.6004 48.9533C59.6939 48.8244 59.834 48.7371 59.9909 48.7101L66.3059 47.7101C66.3841 47.6972 66.464 47.7 66.5411 47.7183C66.6182 47.7365 66.6909 47.7698 66.755 47.8163C66.8192 47.8628 66.8735 47.9215 66.9148 47.9891C66.9562 48.0567 66.9837 48.1318 66.9959 48.2101C67.0087 48.2879 67.0061 48.3675 66.9882 48.4443C66.9703 48.5211 66.9374 48.5936 66.8914 48.6577C66.8455 48.7218 66.7873 48.7762 66.7203 48.8178C66.6533 48.8593 66.5787 48.8873 66.5009 48.9001Z" fill="#D33A39"/>
<path d="M113 67.9342C112.939 67.9357 112.879 67.9272 112.82 67.9092L85.7504 60.1642C85.5938 60.1065 85.4649 59.9917 85.3895 59.8429C85.3141 59.694 85.298 59.5221 85.3442 59.3618C85.3905 59.2015 85.4958 59.0646 85.6388 58.9788C85.7819 58.893 85.9522 58.8645 86.1154 58.8992L113.155 66.6442C113.323 66.6929 113.464 66.8061 113.549 66.9588C113.633 67.1115 113.653 67.2914 113.605 67.4592C113.568 67.5924 113.49 67.7103 113.381 67.7957C113.272 67.8812 113.139 67.9297 113 67.9342Z" fill="#263238"/>
<path d="M101.314 70.8797C101.18 70.8791 101.049 70.8372 100.939 70.7597L85.5544 60.0747C85.4778 60.0276 85.4117 59.9653 85.36 59.8917C85.3083 59.8181 85.2723 59.7347 85.254 59.6466C85.2357 59.5586 85.2356 59.4677 85.2538 59.3796C85.2719 59.2915 85.3078 59.2081 85.3593 59.1344C85.4108 59.0607 85.4769 58.9983 85.5534 58.951C85.6299 58.9038 85.7153 58.8726 85.8042 58.8596C85.8932 58.8465 85.9839 58.8517 86.0708 58.8749C86.1576 58.8982 86.2389 58.9389 86.3094 58.9947L101.689 69.6797C101.804 69.7601 101.89 69.8748 101.935 70.0073C101.98 70.1397 101.982 70.283 101.94 70.4166C101.898 70.5501 101.815 70.6669 101.703 70.7501C101.59 70.8334 101.454 70.8787 101.314 70.8797Z" fill="#263238"/>
<path d="M66.7748 82.0497C66.6476 82.0517 66.5227 82.0167 66.4151 81.9489C66.3075 81.8811 66.222 81.7834 66.169 81.6679C66.116 81.5523 66.0978 81.4238 66.1166 81.2981C66.1353 81.1723 66.1903 81.0547 66.2748 80.9597L85.4298 59.0997C85.5445 58.9671 85.7071 58.8855 85.882 58.8728C86.0569 58.8602 86.2296 58.9175 86.3623 59.0322C86.4949 59.1469 86.5765 59.3096 86.5891 59.4845C86.6018 59.6593 86.5445 59.8321 86.4298 59.9647L67.2748 81.8247C67.2126 81.8961 67.1357 81.9532 67.0494 81.992C66.9631 82.0309 66.8694 82.0506 66.7748 82.0497Z" fill="#263238"/>
<path d="M139.595 89.3252H139.5C139.408 89.3257 139.318 89.3477 139.237 89.3894C139.155 89.431 139.085 89.4913 139.031 89.5652C138.977 89.6391 138.941 89.7247 138.926 89.815C138.911 89.9053 138.917 89.9979 138.945 90.0852L141.04 96.7402H141.86L139.595 89.3252Z" fill="#D33A39"/>
<path d="M139.096 104.001H139.741L135.811 91.1455C135.647 91.1471 135.486 91.1867 135.34 91.2613C135.194 91.336 135.068 91.4435 134.971 91.5755C134.874 91.7075 134.809 91.8602 134.781 92.0216C134.753 92.183 134.763 92.3487 134.811 92.5055L138.096 103.256C138.162 103.469 138.295 103.657 138.475 103.791C138.654 103.924 138.872 103.998 139.096 104.001Z" fill="#D33A39"/>
<path d="M154.891 91.1303H151.146L150.596 89.3253H147.886L146.886 86.1053C146.877 86.0738 146.862 86.0444 146.841 86.0188C146.821 85.9932 146.795 85.9719 146.766 85.9561C146.738 85.9403 146.706 85.9303 146.673 85.9268C146.641 85.9232 146.608 85.9261 146.576 85.9353C146.513 85.956 146.461 86.0005 146.43 86.0593C146.399 86.1181 146.392 86.1866 146.411 86.2503L147.351 89.3253H142.601L140.601 82.8253C140.595 82.7906 140.581 82.7576 140.561 82.7285C140.541 82.6995 140.515 82.675 140.485 82.6566C140.455 82.6383 140.422 82.6265 140.387 82.6221C140.352 82.6177 140.316 82.6207 140.282 82.631C140.249 82.6413 140.217 82.6586 140.191 82.6818C140.164 82.705 140.143 82.7336 140.128 82.7656C140.113 82.7977 140.106 82.8325 140.105 82.8678C140.105 82.903 140.112 82.938 140.126 82.9703L142.066 89.3253H139.566L140.116 91.1303H135.781L139.741 104H158.821L154.891 91.1303Z" fill="#D33A39"/>
<path opacity="0.4" d="M154.891 91.1303H151.146L150.596 89.3253H147.886L146.886 86.1053C146.877 86.0738 146.862 86.0444 146.841 86.0188C146.821 85.9932 146.795 85.9719 146.766 85.9561C146.738 85.9403 146.706 85.9303 146.673 85.9268C146.641 85.9232 146.608 85.9261 146.576 85.9353C146.513 85.956 146.461 86.0005 146.43 86.0593C146.399 86.1181 146.392 86.1866 146.411 86.2503L147.351 89.3253H142.601L140.601 82.8253C140.595 82.7906 140.581 82.7576 140.561 82.7285C140.541 82.6995 140.515 82.675 140.485 82.6566C140.455 82.6383 140.422 82.6265 140.387 82.6221C140.352 82.6177 140.316 82.6207 140.282 82.631C140.249 82.6413 140.217 82.6586 140.191 82.6818C140.164 82.705 140.143 82.7336 140.128 82.7656C140.113 82.7977 140.106 82.8325 140.105 82.8678C140.105 82.903 140.112 82.938 140.126 82.9703L142.066 89.3253H139.566L140.116 91.1303H135.781L139.741 104H158.821L154.891 91.1303Z" fill="white"/>
<path d="M171.11 81.7402C171.7 82.6502 172.2 83.5252 172.71 84.4302C173.22 85.3352 173.71 86.2452 174.17 87.1652C175.105 89.0102 175.96 90.9102 176.72 92.8702C177.11 93.8452 177.445 94.8702 177.765 95.8702L177.825 96.0702L177.91 96.3952C177.964 96.6139 178.002 96.8361 178.025 97.0602C178.075 97.5129 178.065 97.9702 177.995 98.4202C177.866 99.2339 177.566 100.011 177.115 100.7C176.383 101.772 175.419 102.666 174.295 103.315C173.813 103.608 173.311 103.868 172.795 104.095C172.271 104.323 171.731 104.513 171.18 104.665L170.01 102.165C170.697 101.589 171.348 100.971 171.96 100.315C172.478 99.7926 172.888 99.1723 173.165 98.4902C173.236 98.3126 173.257 98.1189 173.225 97.9302C173.207 97.8796 173.183 97.831 173.155 97.7852C173.144 97.7604 173.131 97.7369 173.115 97.7152C173.113 97.7036 173.113 97.6918 173.115 97.6802L173.05 97.5202C172.695 96.6502 172.31 95.7852 171.91 94.9102C171.095 93.1752 170.21 91.4452 169.275 89.7302L167.865 87.1652L166.42 84.6652L171.11 81.7402Z" fill="#FFB573"/>
<path d="M171.241 101.9L168.611 101.215L168.461 105.455C168.461 105.455 170.516 105.76 171.776 104.505L171.241 101.9Z" fill="#FFB573"/>
<path d="M164.885 100.5L165.48 104.225L168.46 105.455L168.61 101.215L164.885 100.5Z" fill="#FFB573"/>
<path d="M154.001 64.6802C153.941 64.9702 153.741 65.1802 153.551 65.1352C153.361 65.0902 153.256 64.8302 153.316 64.5402C153.376 64.2502 153.576 64.0402 153.766 64.0852C153.956 64.1302 154.081 64.3902 154.001 64.6802Z" fill="#263238"/>
<path d="M153.786 65.1797C153.26 65.9961 152.624 66.7364 151.896 67.3797C152.066 67.5619 152.273 67.7047 152.504 67.798C152.735 67.8913 152.983 67.9329 153.231 67.9197L153.786 65.1797Z" fill="#ED893E"/>
<path d="M155.41 63.2848C155.455 63.2832 155.497 63.2655 155.53 63.2348C155.562 63.2021 155.58 63.1581 155.58 63.1123C155.58 63.0665 155.562 63.0225 155.53 62.9898C155.345 62.7802 155.112 62.6184 154.851 62.5183C154.589 62.4181 154.308 62.3827 154.03 62.4148C153.984 62.4222 153.943 62.4474 153.916 62.4849C153.889 62.5224 153.878 62.5691 153.885 62.6148C153.893 62.66 153.919 62.7001 153.956 62.7271C153.993 62.754 154.039 62.7657 154.085 62.7598C154.303 62.7398 154.522 62.7715 154.726 62.8523C154.929 62.9331 155.11 63.0607 155.255 63.2248C155.273 63.2477 155.297 63.2652 155.324 63.2758C155.352 63.2863 155.381 63.2894 155.41 63.2848Z" fill="#263238"/>
<path d="M162.29 68.7646C161.765 71.4496 161.24 76.3747 163.12 78.1646C163.12 78.1646 162.385 80.8896 157.39 80.8896C151.89 80.8896 154.765 78.1646 154.765 78.1646C157.765 77.4496 157.685 75.2296 157.165 73.1396L162.29 68.7646Z" fill="#FFB573"/>
<path d="M164.201 78.6648C164.606 77.9198 165.046 77.0648 164.131 76.7948C163.131 76.4998 156.666 75.9548 154.766 76.5098C155.351 77.5448 154.361 78.8198 154.361 78.8198L164.201 78.6648Z" fill="#D33A39"/>
<path d="M180.472 203.94C180.323 203.993 180.166 204.016 180.009 204.007C179.852 203.999 179.698 203.959 179.557 203.89C179.502 203.84 179.464 203.774 179.449 203.701C179.434 203.629 179.442 203.553 179.472 203.485C179.488 203.429 179.517 203.377 179.556 203.333C179.595 203.289 179.643 203.254 179.697 203.23C180.197 202.995 181.332 203.46 181.377 203.48C181.393 203.485 181.407 203.495 181.417 203.508C181.427 203.522 181.432 203.538 181.432 203.555C181.433 203.572 181.429 203.589 181.42 203.603C181.411 203.618 181.397 203.629 181.382 203.635C181.09 203.77 180.785 203.872 180.472 203.94ZM179.872 203.355C179.837 203.362 179.804 203.372 179.772 203.385C179.74 203.399 179.712 203.42 179.688 203.446C179.665 203.472 179.647 203.502 179.637 203.535C179.592 203.695 179.637 203.74 179.667 203.76C179.867 203.925 180.597 203.76 181.117 203.565C180.722 203.403 180.297 203.331 179.872 203.355Z" fill="#D33A39"/>
<path d="M181.366 203.645H181.321C180.906 203.525 180.016 202.895 180.006 202.48C180.005 202.414 180.027 202.35 180.068 202.298C180.109 202.246 180.167 202.21 180.231 202.195C180.294 202.174 180.36 202.166 180.426 202.171C180.492 202.177 180.557 202.195 180.616 202.225C181.116 202.48 181.416 203.495 181.426 203.54C181.434 203.553 181.438 203.568 181.438 203.583C181.438 203.598 181.434 203.612 181.426 203.625L181.366 203.645ZM180.326 202.345H180.286C180.176 202.385 180.181 202.435 180.181 202.46C180.181 202.705 180.771 203.2 181.181 203.4C181.068 202.996 180.836 202.636 180.516 202.365C180.456 202.339 180.39 202.332 180.326 202.345Z" fill="#D33A39"/>
<path d="M153.351 204.555C152.876 204.555 152.421 204.49 152.271 204.28C152.232 204.225 152.211 204.158 152.211 204.09C152.211 204.022 152.232 203.956 152.271 203.9C152.332 203.798 152.431 203.724 152.546 203.695C153.161 203.53 154.441 204.26 154.496 204.295C154.513 204.303 154.526 204.316 154.535 204.332C154.543 204.349 154.545 204.367 154.541 204.385C154.538 204.402 154.529 204.418 154.517 204.431C154.504 204.443 154.488 204.452 154.471 204.455C154.101 204.52 153.727 204.553 153.351 204.555ZM152.766 203.845C152.711 203.837 152.656 203.837 152.601 203.845C152.565 203.851 152.531 203.865 152.501 203.886C152.47 203.907 152.445 203.934 152.426 203.965C152.366 204.075 152.391 204.13 152.426 204.16C152.596 204.395 153.526 204.4 154.211 204.305C153.764 204.06 153.273 203.904 152.766 203.845Z" fill="#D33A39"/>
<path d="M154.46 204.455H154.42C153.98 204.255 153.1 203.455 153.17 203.045C153.17 202.945 153.255 202.825 153.49 202.8C153.579 202.79 153.669 202.798 153.755 202.824C153.841 202.85 153.921 202.893 153.99 202.95C154.455 203.335 154.555 204.325 154.56 204.365C154.562 204.38 154.56 204.396 154.554 204.41C154.547 204.424 154.537 204.436 154.525 204.445C154.505 204.456 154.482 204.46 154.46 204.455ZM153.56 202.955H153.5C153.345 202.955 153.335 203.03 153.33 203.05C153.29 203.3 153.885 203.925 154.33 204.195C154.282 203.776 154.108 203.382 153.83 203.065C153.752 203.006 153.658 202.971 153.56 202.965V202.955Z" fill="#D33A39"/>
<path d="M158.496 204.37H154.826L154.461 195.865H158.131L158.496 204.37Z" fill="#FFB573"/>
<path d="M185.455 202.67L181.865 203.445L178.26 195.525L181.85 194.745L185.455 202.67Z" fill="#FFB573"/>
<path d="M181.502 203.085L185.537 202.21C185.608 202.196 185.682 202.206 185.747 202.239C185.812 202.271 185.865 202.325 185.897 202.39L187.297 205.43C187.33 205.504 187.346 205.585 187.343 205.666C187.341 205.748 187.32 205.827 187.283 205.899C187.245 205.971 187.192 206.034 187.127 206.083C187.062 206.131 186.986 206.165 186.907 206.18C185.497 206.46 184.792 206.525 183.022 206.91C181.927 207.145 179.467 207.745 177.957 208.075C176.447 208.405 175.932 206.95 176.522 206.685C179.157 205.48 180.257 204.42 180.967 203.43C181.097 203.254 181.287 203.131 181.502 203.085Z" fill="#263238"/>
<path d="M154.85 203.945H158.85C158.923 203.944 158.994 203.968 159.051 204.014C159.108 204.06 159.146 204.124 159.16 204.195L159.89 207.46C159.908 207.539 159.907 207.621 159.888 207.699C159.87 207.778 159.833 207.851 159.783 207.913C159.732 207.976 159.667 208.026 159.594 208.06C159.521 208.094 159.441 208.111 159.36 208.11C157.91 208.11 155.82 208.005 154.005 208.005C151.875 208.005 150.04 208.12 147.545 208.12C146.045 208.12 145.62 206.595 146.25 206.455C149.125 205.83 151.47 205.76 153.955 204.23C154.221 204.053 154.531 203.955 154.85 203.945Z" fill="#263238"/>
<path d="M169.697 79C173.142 79.79 175.977 88.58 175.977 88.58L169.067 93.85C167.276 91.9428 166.011 89.603 165.397 87.06C164.217 82.45 166.177 78.19 169.697 79Z" fill="#D33A39"/>
<path opacity="0.2" d="M166.745 85.46C168.615 87.31 169.245 90.68 169.37 93.61L169.065 93.845C167.274 91.9378 166.009 89.598 165.395 87.055C165.325 86.78 165.265 86.505 165.215 86.235L166.745 85.46Z" fill="black"/>
<path d="M149.116 79.185C149.116 79.185 145.206 83.6 148.901 110.935H168.546C168.681 107.935 166.786 93.205 169.696 78.995C167.524 78.5769 165.328 78.2996 163.121 78.165C160.338 78.0049 157.548 78.0049 154.766 78.165C152.859 78.3572 150.97 78.6982 149.116 79.185Z" fill="#D33A39"/>
<path opacity="0.2" d="M154.461 195.865L154.646 200.25H158.321L158.136 195.865H154.461Z" fill="black"/>
<path opacity="0.2" d="M181.856 194.745L178.266 195.525L180.126 199.61L183.716 198.83L181.856 194.745Z" fill="black"/>
<path d="M163.83 66.0298C162.885 69.5548 162.51 71.6598 160.33 73.1248C157.06 75.3298 152.99 72.7998 152.865 69.0698C152.75 65.7098 154.31 60.5148 158.09 59.8048C158.924 59.6414 159.785 59.6942 160.592 59.9582C161.399 60.2222 162.125 60.6886 162.7 61.3128C163.276 61.937 163.682 62.6983 163.88 63.5241C164.078 64.3498 164.061 65.2125 163.83 66.0298Z" fill="#FFB573"/>
<path d="M156.2 66.0305C155.865 64.7755 155.075 62.5305 156.765 61.8555C159.035 61.0205 163.675 61.3555 165.525 62.6105C167.305 65.6905 165.14 68.4805 164.025 69.7505C162.91 71.0205 162.835 71.8355 162.105 72.1655C160.71 72.8055 157.725 72.0905 157.345 70.8705C156.85 69.3355 154.82 67.9255 156.2 66.0305Z" fill="#263238"/>
<path d="M164.896 62.96C164.896 62.96 166.451 62.18 166.096 59.96C167.336 61.5 166.651 64.53 164.896 62.96Z" fill="#263238"/>
<path d="M165.271 63.7651C165.271 63.7651 166.021 63.8051 166.836 65.4301C166.896 64.0001 166.001 62.2801 165.271 63.7651Z" fill="#263238"/>
<path d="M158.571 62.125C156.071 62.36 154.411 61.5 153.471 60.02C154.005 60.1504 154.562 60.1504 155.096 60.02C154.875 59.7729 154.601 59.5788 154.295 59.4524C153.988 59.326 153.657 59.2705 153.326 59.29C153.726 58.9807 154.189 58.7627 154.682 58.6513C155.175 58.5399 155.687 58.5377 156.181 58.645C155.709 57.7717 155.582 56.7525 155.826 55.79C156.221 56.71 158.366 57.71 159.141 57.73C159.141 57.73 158.051 56.48 158.436 55.165C159.241 56.375 161.161 58.625 163.661 59.125C165.736 59.54 167.686 63.69 164.161 63.54C159.501 63.35 158.571 62.125 158.571 62.125Z" fill="#263238"/>
<path d="M157.841 65.8651C157.596 66.7417 157.068 67.513 156.341 68.0601C155.386 68.7701 154.671 68.0601 154.741 66.9901C154.801 66.0151 155.371 64.4901 156.426 64.1801C157.481 63.8701 158.111 64.8101 157.841 65.8651Z" fill="#FFB573"/>
<path d="M155.871 110.935C155.871 110.935 160.036 139 162.326 149.5C164.826 161 178.271 199.12 178.271 199.12L184.846 197.695C184.846 197.695 175.451 166.645 173.346 150.545C171.731 138.18 168.546 110.915 168.546 110.915L155.871 110.935Z" fill="#D33A39"/>
<path d="M176.696 196.945C176.666 196.945 177.921 199.325 177.921 199.325L185.321 197.72L184.696 195.5L176.696 196.945Z" fill="#263238"/>
<path opacity="0.3" d="M158.501 120.935C163.321 121.88 162.811 139.855 162.231 149.1C160.841 142.565 158.806 129.99 157.416 121.065C157.752 120.899 158.135 120.853 158.501 120.935Z" fill="black"/>
<path d="M148.901 110.935C148.901 110.935 148.401 138.4 148.796 149.6C149.211 161.25 153.296 199.4 153.296 199.4H159.501C159.501 199.4 159.731 161.93 160.001 150.49C160.306 137.99 161.811 110.935 161.811 110.935H148.901Z" fill="#D33A39"/>
<path d="M152.08 196.92C152.05 196.92 152.43 199.505 152.43 199.505H160L160.205 197.2L152.08 196.92Z" fill="#263238"/>
<path d="M149.025 78.7999C148.065 79.2349 147.14 80.0198 146.86 82.6098C146.595 85.1098 147.11 106.92 147.735 113.89C147.749 114.115 147.835 114.33 147.981 114.502C148.127 114.674 148.325 114.795 148.545 114.845C152.425 115.62 164.12 115.485 168.34 114.945C168.579 114.906 168.796 114.785 168.954 114.602C169.113 114.419 169.201 114.187 169.205 113.945C169.545 107.2 170.515 95.3348 170.515 88.3198C170.515 83.7448 171.015 79.0248 167.515 78.2198C164.945 77.6148 152.775 77.0899 149.025 78.7999Z" fill="#263238"/>
<path d="M153 85.1802C152.83 86.2352 152.625 87.1802 152.4 88.1802C152.175 89.1802 151.935 90.1452 151.655 91.1252C151.1 93.1357 150.389 95.1 149.53 97.0002C149.059 98.0431 148.488 99.0378 147.825 99.9702C147.424 100.522 146.961 101.025 146.445 101.47C146.126 101.75 145.777 101.993 145.405 102.195C145.218 102.292 145.026 102.377 144.83 102.45C144.627 102.527 144.42 102.59 144.21 102.64C143.331 102.859 142.41 102.834 141.545 102.57C140.798 102.33 140.114 101.925 139.545 101.385C139.073 100.947 138.669 100.442 138.345 99.8852C138.2 99.6202 138.06 99.3552 137.945 99.0852C137.83 98.8152 137.745 98.5552 137.635 98.2102L140.07 96.9152C140.195 96.9952 140.38 97.1552 140.535 97.2752C140.69 97.3952 140.86 97.5252 141.035 97.6302C141.317 97.8352 141.625 98.0032 141.95 98.1302C142.143 98.2147 142.359 98.2357 142.565 98.1902C142.685 98.1402 142.705 98.0852 142.78 98.0002L142.925 97.8652L143.06 97.7252C143.249 97.5104 143.416 97.2776 143.56 97.0302C143.973 96.34 144.325 95.6157 144.615 94.8652C145.264 93.1694 145.812 91.4363 146.255 89.6752C146.485 88.7752 146.715 87.8702 146.925 86.9552C147.135 86.0402 147.33 85.1002 147.51 84.2402L153 85.1802Z" fill="#FFB573"/>
<path d="M155.586 82.7801C158.586 88.7801 151.481 95.5601 151.481 95.5601L143.576 91.4301C144.128 88.2509 145.034 85.1433 146.276 82.1651C148.581 77.0501 153.871 79.3251 155.586 82.7801Z" fill="#D33A39"/>
<path d="M138.76 99.3254L135.885 97.9054L137.41 94.1904C137.41 94.1904 140.595 95.2404 140.41 97.9054L138.76 99.3254Z" fill="#FFB573"/>
<path d="M135.191 96.99L134.916 93.665L137.411 94.19L135.886 97.905L135.191 96.99Z" fill="#FFB573"/>
</svg>
