<svg width="202" height="71" viewBox="0 0 202 71" fill="none" xmlns="http://www.w3.org/2000/svg">
<rect width="202" height="71" fill="#04172A"/>
<path d="M92.9691 24V15.6H95.8371C96.8211 15.6 97.6291 15.776 98.2611 16.128C98.9011 16.472 99.3731 16.96 99.6771 17.592C99.9891 18.216 100.145 18.952 100.145 19.8C100.145 20.648 99.9891 21.388 99.6771 22.02C99.3731 22.644 98.9011 23.132 98.2611 23.484C97.6291 23.828 96.8211 24 95.8371 24H92.9691ZM94.5051 22.68H95.7651C96.4691 22.68 97.0251 22.568 97.4331 22.344C97.8411 22.112 98.1331 21.784 98.3091 21.36C98.4851 20.928 98.5731 20.408 98.5731 19.8C98.5731 19.2 98.4851 18.684 98.3091 18.252C98.1331 17.82 97.8411 17.488 97.4331 17.256C97.0251 17.024 96.4691 16.908 95.7651 16.908H94.5051V22.68ZM104.08 24.144C103.504 24.144 102.984 24.012 102.52 23.748C102.064 23.484 101.7 23.12 101.428 22.656C101.164 22.184 101.032 21.64 101.032 21.024C101.032 20.408 101.168 19.868 101.44 19.404C101.712 18.932 102.076 18.564 102.532 18.3C102.996 18.036 103.516 17.904 104.092 17.904C104.66 17.904 105.172 18.036 105.628 18.3C106.092 18.564 106.456 18.932 106.72 19.404C106.992 19.868 107.128 20.408 107.128 21.024C107.128 21.64 106.992 22.184 106.72 22.656C106.456 23.12 106.092 23.484 105.628 23.748C105.164 24.012 104.648 24.144 104.08 24.144ZM104.08 22.812C104.48 22.812 104.828 22.664 105.124 22.368C105.42 22.064 105.568 21.616 105.568 21.024C105.568 20.432 105.42 19.988 105.124 19.692C104.828 19.388 104.484 19.236 104.092 19.236C103.684 19.236 103.332 19.388 103.036 19.692C102.748 19.988 102.604 20.432 102.604 21.024C102.604 21.616 102.748 22.064 103.036 22.368C103.332 22.664 103.68 22.812 104.08 22.812ZM109.215 24L107.475 18.048H108.999L110.031 22.332L111.231 18.048H112.935L114.135 22.332L115.179 18.048H116.703L114.951 24H113.355L112.083 19.548L110.811 24H109.215ZM117.432 24V18.048H118.788L118.908 19.056C119.092 18.704 119.356 18.424 119.7 18.216C120.052 18.008 120.464 17.904 120.936 17.904C121.672 17.904 122.244 18.136 122.652 18.6C123.06 19.064 123.264 19.744 123.264 20.64V24H121.728V20.784C121.728 20.272 121.624 19.88 121.416 19.608C121.208 19.336 120.884 19.2 120.444 19.2C120.012 19.2 119.656 19.352 119.376 19.656C119.104 19.96 118.968 20.384 118.968 20.928V24H117.432ZM124.493 24V15.36H126.029V24H124.493ZM130.214 24.144C129.638 24.144 129.118 24.012 128.654 23.748C128.198 23.484 127.834 23.12 127.562 22.656C127.298 22.184 127.166 21.64 127.166 21.024C127.166 20.408 127.302 19.868 127.574 19.404C127.846 18.932 128.21 18.564 128.666 18.3C129.13 18.036 129.65 17.904 130.226 17.904C130.794 17.904 131.306 18.036 131.762 18.3C132.226 18.564 132.59 18.932 132.854 19.404C133.126 19.868 133.262 20.408 133.262 21.024C133.262 21.64 133.126 22.184 132.854 22.656C132.59 23.12 132.226 23.484 131.762 23.748C131.298 24.012 130.782 24.144 130.214 24.144ZM130.214 22.812C130.614 22.812 130.962 22.664 131.258 22.368C131.554 22.064 131.702 21.616 131.702 21.024C131.702 20.432 131.554 19.988 131.258 19.692C130.962 19.388 130.618 19.236 130.226 19.236C129.818 19.236 129.466 19.388 129.17 19.692C128.882 19.988 128.738 20.432 128.738 21.024C128.738 21.616 128.882 22.064 129.17 22.368C129.466 22.664 129.814 22.812 130.214 22.812ZM136.447 24.144C135.935 24.144 135.515 24.064 135.187 23.904C134.859 23.736 134.615 23.516 134.455 23.244C134.295 22.972 134.215 22.672 134.215 22.344C134.215 21.792 134.431 21.344 134.863 21C135.295 20.656 135.943 20.484 136.807 20.484H138.319V20.34C138.319 19.932 138.203 19.632 137.971 19.44C137.739 19.248 137.451 19.152 137.107 19.152C136.795 19.152 136.523 19.228 136.291 19.38C136.059 19.524 135.915 19.74 135.859 20.028H134.359C134.399 19.596 134.543 19.22 134.791 18.9C135.047 18.58 135.375 18.336 135.775 18.168C136.175 17.992 136.623 17.904 137.119 17.904C137.967 17.904 138.635 18.116 139.123 18.54C139.611 18.964 139.855 19.564 139.855 20.34V24H138.547L138.403 23.04C138.227 23.36 137.979 23.624 137.659 23.832C137.347 24.04 136.943 24.144 136.447 24.144ZM136.795 22.944C137.235 22.944 137.575 22.8 137.815 22.512C138.063 22.224 138.219 21.868 138.283 21.444H136.975C136.567 21.444 136.275 21.52 136.099 21.672C135.923 21.816 135.835 21.996 135.835 22.212C135.835 22.444 135.923 22.624 136.099 22.752C136.275 22.88 136.507 22.944 136.795 22.944ZM143.817 24.144C143.257 24.144 142.757 24.008 142.317 23.736C141.877 23.464 141.529 23.092 141.273 22.62C141.017 22.148 140.889 21.612 140.889 21.012C140.889 20.412 141.017 19.88 141.273 19.416C141.529 18.944 141.877 18.576 142.317 18.312C142.757 18.04 143.257 17.904 143.817 17.904C144.265 17.904 144.657 17.988 144.993 18.156C145.329 18.324 145.601 18.56 145.809 18.864V15.36H147.345V24H145.977L145.809 23.148C145.617 23.412 145.361 23.644 145.041 23.844C144.729 24.044 144.321 24.144 143.817 24.144ZM144.141 22.8C144.637 22.8 145.041 22.636 145.353 22.308C145.673 21.972 145.833 21.544 145.833 21.024C145.833 20.504 145.673 20.08 145.353 19.752C145.041 19.416 144.637 19.248 144.141 19.248C143.653 19.248 143.249 19.412 142.929 19.74C142.609 20.068 142.449 20.492 142.449 21.012C142.449 21.532 142.609 21.96 142.929 22.296C143.249 22.632 143.653 22.8 144.141 22.8ZM154.145 24.144C153.569 24.144 153.049 24.012 152.585 23.748C152.129 23.484 151.765 23.12 151.493 22.656C151.229 22.184 151.097 21.64 151.097 21.024C151.097 20.408 151.233 19.868 151.505 19.404C151.777 18.932 152.141 18.564 152.597 18.3C153.061 18.036 153.581 17.904 154.157 17.904C154.725 17.904 155.237 18.036 155.693 18.3C156.157 18.564 156.521 18.932 156.785 19.404C157.057 19.868 157.193 20.408 157.193 21.024C157.193 21.64 157.057 22.184 156.785 22.656C156.521 23.12 156.157 23.484 155.693 23.748C155.229 24.012 154.713 24.144 154.145 24.144ZM154.145 22.812C154.545 22.812 154.893 22.664 155.189 22.368C155.485 22.064 155.633 21.616 155.633 21.024C155.633 20.432 155.485 19.988 155.189 19.692C154.893 19.388 154.549 19.236 154.157 19.236C153.749 19.236 153.397 19.388 153.101 19.692C152.813 19.988 152.669 20.432 152.669 21.024C152.669 21.616 152.813 22.064 153.101 22.368C153.397 22.664 153.745 22.812 154.145 22.812ZM158.326 24V18.048H159.682L159.802 19.056C159.986 18.704 160.25 18.424 160.594 18.216C160.946 18.008 161.358 17.904 161.83 17.904C162.566 17.904 163.138 18.136 163.546 18.6C163.954 19.064 164.158 19.744 164.158 20.64V24H162.622V20.784C162.622 20.272 162.518 19.88 162.31 19.608C162.102 19.336 161.778 19.2 161.338 19.2C160.906 19.2 160.55 19.352 160.27 19.656C159.998 19.96 159.862 20.384 159.862 20.928V24H158.326ZM88.0457 54.4V40.08H90.3257L90.6057 41.5C90.9257 41.06 91.3457 40.6733 91.8657 40.34C92.399 40.0067 93.0857 39.84 93.9257 39.84C94.859 39.84 95.6924 40.0667 96.4257 40.52C97.159 40.9733 97.739 41.5933 98.1657 42.38C98.5924 43.1667 98.8057 44.06 98.8057 45.06C98.8057 46.06 98.5924 46.9533 98.1657 47.74C97.739 48.5133 97.159 49.1267 96.4257 49.58C95.6924 50.02 94.859 50.24 93.9257 50.24C93.179 50.24 92.5257 50.1 91.9657 49.82C91.4057 49.54 90.9524 49.1467 90.6057 48.64V54.4H88.0457ZM93.3857 48C94.199 48 94.8724 47.7267 95.4057 47.18C95.939 46.6333 96.2057 45.9267 96.2057 45.06C96.2057 44.1933 95.939 43.48 95.4057 42.92C94.8724 42.36 94.199 42.08 93.3857 42.08C92.559 42.08 91.879 42.36 91.3457 42.92C90.8257 43.4667 90.5657 44.1733 90.5657 45.04C90.5657 45.9067 90.8257 46.62 91.3457 47.18C91.879 47.7267 92.559 48 93.3857 48ZM100.693 50V35.6H103.253V50H100.693ZM108.888 50.24C108.035 50.24 107.335 50.1067 106.788 49.84C106.242 49.56 105.835 49.1933 105.568 48.74C105.302 48.2867 105.168 47.7867 105.168 47.24C105.168 46.32 105.528 45.5733 106.248 45C106.968 44.4267 108.048 44.14 109.488 44.14H112.008V43.9C112.008 43.22 111.815 42.72 111.428 42.4C111.042 42.08 110.562 41.92 109.988 41.92C109.468 41.92 109.015 42.0467 108.628 42.3C108.242 42.54 108.002 42.9 107.908 43.38H105.408C105.475 42.66 105.715 42.0333 106.128 41.5C106.555 40.9667 107.102 40.56 107.768 40.28C108.435 39.9867 109.182 39.84 110.008 39.84C111.422 39.84 112.535 40.1933 113.348 40.9C114.162 41.6067 114.568 42.6067 114.568 43.9V50H112.388L112.148 48.4C111.855 48.9333 111.442 49.3733 110.908 49.72C110.388 50.0667 109.715 50.24 108.888 50.24ZM109.468 48.24C110.202 48.24 110.768 48 111.168 47.52C111.582 47.04 111.842 46.4467 111.948 45.74H109.768C109.088 45.74 108.602 45.8667 108.308 46.12C108.015 46.36 107.868 46.66 107.868 47.02C107.868 47.4067 108.015 47.7067 108.308 47.92C108.602 48.1333 108.988 48.24 109.468 48.24ZM117.519 54.4L119.819 49.34H119.219L115.359 40.08H118.139L120.919 47.06L123.819 40.08H126.539L120.239 54.4H117.519ZM131.425 50.24C130.545 50.24 129.771 50.1 129.105 49.82C128.438 49.5267 127.905 49.1267 127.505 48.62C127.105 48.1133 126.865 47.5267 126.785 46.86H129.365C129.445 47.2467 129.658 47.58 130.005 47.86C130.365 48.1267 130.825 48.26 131.385 48.26C131.945 48.26 132.351 48.1467 132.605 47.92C132.871 47.6933 133.005 47.4333 133.005 47.14C133.005 46.7133 132.818 46.4267 132.445 46.28C132.071 46.12 131.551 45.9667 130.885 45.82C130.458 45.7267 130.025 45.6133 129.585 45.48C129.145 45.3467 128.738 45.18 128.365 44.98C128.005 44.7667 127.711 44.5 127.485 44.18C127.258 43.8467 127.145 43.44 127.145 42.96C127.145 42.08 127.491 41.34 128.185 40.74C128.891 40.14 129.878 39.84 131.145 39.84C132.318 39.84 133.251 40.1133 133.945 40.66C134.651 41.2067 135.071 41.96 135.205 42.92H132.785C132.638 42.1867 132.085 41.82 131.125 41.82C130.645 41.82 130.271 41.9133 130.005 42.1C129.751 42.2867 129.625 42.52 129.625 42.8C129.625 43.0933 129.818 43.3267 130.205 43.5C130.591 43.6733 131.105 43.8333 131.745 43.98C132.438 44.14 133.071 44.32 133.645 44.52C134.231 44.7067 134.698 44.9933 135.045 45.38C135.391 45.7533 135.565 46.2933 135.565 47C135.578 47.6133 135.418 48.1667 135.085 48.66C134.751 49.1533 134.271 49.54 133.645 49.82C133.018 50.1 132.278 50.24 131.425 50.24ZM141.54 50C140.5 50 139.667 49.7467 139.04 49.24C138.413 48.7333 138.1 47.8333 138.1 46.54V42.22H136.4V40.08H138.1L138.4 37.42H140.66V40.08H143.34V42.22H140.66V46.56C140.66 47.04 140.76 47.3733 140.96 47.56C141.173 47.7333 141.533 47.82 142.04 47.82H143.28V50H141.54ZM149.644 50.24C148.684 50.24 147.817 50.02 147.044 49.58C146.284 49.14 145.677 48.5333 145.224 47.76C144.784 46.9733 144.564 46.0667 144.564 45.04C144.564 44.0133 144.791 43.1133 145.244 42.34C145.697 41.5533 146.304 40.94 147.064 40.5C147.837 40.06 148.704 39.84 149.664 39.84C150.611 39.84 151.464 40.06 152.224 40.5C152.997 40.94 153.604 41.5533 154.044 42.34C154.497 43.1133 154.724 44.0133 154.724 45.04C154.724 46.0667 154.497 46.9733 154.044 47.76C153.604 48.5333 152.997 49.14 152.224 49.58C151.451 50.02 150.591 50.24 149.644 50.24ZM149.644 48.02C150.311 48.02 150.891 47.7733 151.384 47.28C151.877 46.7733 152.124 46.0267 152.124 45.04C152.124 44.0533 151.877 43.3133 151.384 42.82C150.891 42.3133 150.317 42.06 149.664 42.06C148.984 42.06 148.397 42.3133 147.904 42.82C147.424 43.3133 147.184 44.0533 147.184 45.04C147.184 46.0267 147.424 46.7733 147.904 47.28C148.397 47.7733 148.977 48.02 149.644 48.02ZM156.613 50V40.08H158.893L159.133 41.94C159.493 41.3 159.98 40.7933 160.593 40.42C161.22 40.0333 161.953 39.84 162.793 39.84V42.54H162.073C161.513 42.54 161.013 42.6267 160.573 42.8C160.133 42.9733 159.786 43.2733 159.533 43.7C159.293 44.1267 159.173 44.72 159.173 45.48V50H156.613ZM168.787 50.24C167.787 50.24 166.9 50.0267 166.127 49.6C165.353 49.1733 164.747 48.5733 164.307 47.8C163.867 47.0267 163.647 46.1333 163.647 45.12C163.647 44.0933 163.86 43.18 164.287 42.38C164.727 41.58 165.327 40.96 166.087 40.52C166.86 40.0667 167.767 39.84 168.807 39.84C169.78 39.84 170.64 40.0533 171.387 40.48C172.133 40.9067 172.713 41.4933 173.127 42.24C173.553 42.9733 173.767 43.7933 173.767 44.7C173.767 44.8467 173.76 45 173.747 45.16C173.747 45.32 173.74 45.4867 173.727 45.66H166.187C166.24 46.4333 166.507 47.04 166.987 47.48C167.48 47.92 168.073 48.14 168.767 48.14C169.287 48.14 169.72 48.0267 170.067 47.8C170.427 47.56 170.693 47.2533 170.867 46.88H173.467C173.28 47.5067 172.967 48.08 172.527 48.6C172.1 49.1067 171.567 49.5067 170.927 49.8C170.3 50.0933 169.587 50.24 168.787 50.24ZM168.807 41.92C168.18 41.92 167.627 42.1 167.147 42.46C166.667 42.8067 166.36 43.34 166.227 44.06H171.167C171.127 43.4067 170.887 42.8867 170.447 42.5C170.007 42.1133 169.46 41.92 168.807 41.92Z" fill="white"/>
<path d="M24.75 20.6488V51.3519C24.7502 51.4185 24.7701 51.4836 24.8071 51.5389C24.8442 51.5943 24.8967 51.6375 24.9582 51.6631C25.0197 51.6887 25.0874 51.6956 25.1528 51.6829C25.2182 51.6702 25.2783 51.6385 25.3258 51.5917L41.3125 36.0011L25.3258 20.4089C25.2783 20.3621 25.2182 20.3304 25.1528 20.3177C25.0874 20.305 25.0197 20.3119 24.9582 20.3375C24.8967 20.3631 24.8442 20.4063 24.8071 20.4617C24.7701 20.5171 24.7502 20.5821 24.75 20.6488Z" fill="#40BFEE" fill-opacity="0.5"/>
<path d="M48.0146 29.594L27.9693 18.5502L27.9568 18.5432C27.6115 18.3557 27.2833 18.8229 27.5662 19.0948L43.2794 34.1198L48.0146 29.594Z" fill="#57BC6A" fill-opacity="0.5"/>
<path d="M27.569 52.9064C27.2847 53.1783 27.6128 53.6455 27.9597 53.458L27.9722 53.451L48.0159 42.4072L43.2808 37.8799L27.569 52.9064Z" fill="#EA4454" fill-opacity="0.5"/>
<path d="M56.109 34.0467L50.5113 30.9639L45.248 35.9998L50.5113 41.0334L56.109 37.9529C57.6316 37.1115 57.6316 34.8881 56.109 34.0467Z" fill="#FAB915" fill-opacity="0.5"/>
</svg>
