<svg width="160" height="35" viewBox="0 0 160 35" fill="none" xmlns="http://www.w3.org/2000/svg">
<path d="M0.72 29V0.999998H11.96C14.8667 0.999998 17.08 1.68 18.6 3.04C20.1467 4.37333 20.92 6.09333 20.92 8.2C20.92 9.96 20.44 11.3733 19.48 12.44C18.5467 13.48 17.4 14.1867 16.04 14.56C17.64 14.88 18.96 15.68 20 16.96C21.04 18.2133 21.56 19.68 21.56 21.36C21.56 23.5733 20.76 25.4 19.16 26.84C17.56 28.28 15.2933 29 12.36 29H0.72ZM5.84 12.76H11.2C12.64 12.76 13.7467 12.4267 14.52 11.76C15.2933 11.0933 15.68 10.1467 15.68 8.92C15.68 7.74667 15.2933 6.82667 14.52 6.16C13.7733 5.46667 12.64 5.12 11.12 5.12H5.84V12.76ZM5.84 24.84H11.56C13.08 24.84 14.2533 24.4933 15.08 23.8C15.9333 23.08 16.36 22.08 16.36 20.8C16.36 19.4933 15.92 18.4667 15.04 17.72C14.16 16.9733 12.9733 16.6 11.48 16.6H5.84V24.84ZM24.6344 29V0.199999H29.7544V29H24.6344ZM43.3059 29.48C41.3859 29.48 39.6526 29.04 38.1059 28.16C36.5859 27.28 35.3726 26.0667 34.4659 24.52C33.5859 22.9467 33.1459 21.1333 33.1459 19.08C33.1459 17.0267 33.5993 15.2267 34.5059 13.68C35.4126 12.1067 36.6259 10.88 38.1459 10C39.6926 9.12 41.4259 8.68 43.3459 8.68C45.2393 8.68 46.9459 9.12 48.4659 10C50.0126 10.88 51.2259 12.1067 52.1059 13.68C53.0126 15.2267 53.4659 17.0267 53.4659 19.08C53.4659 21.1333 53.0126 22.9467 52.1059 24.52C51.2259 26.0667 50.0126 27.28 48.4659 28.16C46.9193 29.04 45.1993 29.48 43.3059 29.48ZM43.3059 25.04C44.6393 25.04 45.7993 24.5467 46.7859 23.56C47.7726 22.5467 48.2659 21.0533 48.2659 19.08C48.2659 17.1067 47.7726 15.6267 46.7859 14.64C45.7993 13.6267 44.6526 13.12 43.3459 13.12C41.9859 13.12 40.8126 13.6267 39.8259 14.64C38.8659 15.6267 38.3859 17.1067 38.3859 19.08C38.3859 21.0533 38.8659 22.5467 39.8259 23.56C40.8126 24.5467 41.9726 25.04 43.3059 25.04ZM66.3638 29.48C64.4438 29.48 62.7104 29.04 61.1638 28.16C59.6438 27.28 58.4304 26.0667 57.5238 24.52C56.6438 22.9467 56.2038 21.1333 56.2038 19.08C56.2038 17.0267 56.6571 15.2267 57.5638 13.68C58.4704 12.1067 59.6838 10.88 61.2038 10C62.7504 9.12 64.4838 8.68 66.4038 8.68C68.2971 8.68 70.0038 9.12 71.5238 10C73.0704 10.88 74.2838 12.1067 75.1638 13.68C76.0704 15.2267 76.5238 17.0267 76.5238 19.08C76.5238 21.1333 76.0704 22.9467 75.1638 24.52C74.2838 26.0667 73.0704 27.28 71.5238 28.16C69.9771 29.04 68.2571 29.48 66.3638 29.48ZM66.3638 25.04C67.6971 25.04 68.8571 24.5467 69.8438 23.56C70.8304 22.5467 71.3238 21.0533 71.3238 19.08C71.3238 17.1067 70.8304 15.6267 69.8438 14.64C68.8571 13.6267 67.7104 13.12 66.4038 13.12C65.0438 13.12 63.8704 13.6267 62.8838 14.64C61.9238 15.6267 61.4438 17.1067 61.4438 19.08C61.4438 21.0533 61.9238 22.5467 62.8838 23.56C63.8704 24.5467 65.0304 25.04 66.3638 25.04ZM89.0216 29.48C87.1549 29.48 85.4882 29.0267 84.0216 28.12C82.5549 27.2133 81.3949 25.9733 80.5416 24.4C79.6882 22.8267 79.2616 21.04 79.2616 19.04C79.2616 17.04 79.6882 15.2667 80.5416 13.72C81.3949 12.1467 82.5549 10.92 84.0216 10.04C85.4882 9.13333 87.1549 8.68 89.0216 8.68C90.5149 8.68 91.8216 8.96 92.9416 9.52C94.0616 10.08 94.9682 10.8667 95.6616 11.88V0.199999H100.782V29H96.2216L95.6616 26.16C95.0216 27.04 94.1682 27.8133 93.1016 28.48C92.0616 29.1467 90.7016 29.48 89.0216 29.48ZM90.1016 25C91.7549 25 93.1016 24.4533 94.1416 23.36C95.2082 22.24 95.7416 20.8133 95.7416 19.08C95.7416 17.3467 95.2082 15.9333 94.1416 14.84C93.1016 13.72 91.7549 13.16 90.1016 13.16C88.4749 13.16 87.1282 13.7067 86.0616 14.8C84.9949 15.8933 84.4616 17.3067 84.4616 19.04C84.4616 20.7733 84.9949 22.2 86.0616 23.32C87.1282 24.44 88.4749 25 90.1016 25Z" fill="#04172A"/>
<path d="M104.915 29V0.999998H110.035V12.64H122.595V0.999998H127.715V29H122.595V16.8H110.035V29H104.915ZM145.078 29.48C142.278 29.48 139.824 28.8667 137.718 27.64C135.638 26.4133 133.998 24.72 132.798 22.56C131.624 20.3733 131.038 17.8533 131.038 15C131.038 12.1467 131.624 9.64 132.798 7.48C133.998 5.29333 135.638 3.58667 137.718 2.36C139.824 1.13333 142.278 0.52 145.078 0.52C147.851 0.52 150.291 1.13333 152.398 2.36C154.504 3.58667 156.144 5.29333 157.318 7.48C158.491 9.64 159.078 12.1467 159.078 15C159.078 17.6667 158.558 20.0533 157.518 22.16C156.478 24.24 155.038 25.8933 153.198 27.12L159.678 34.08H153.318L148.918 29.04C147.691 29.3333 146.411 29.48 145.078 29.48ZM145.078 24.88C147.744 24.88 149.864 24 151.438 22.24C153.038 20.48 153.838 18.0667 153.838 15C153.838 11.9333 153.038 9.52 151.438 7.76C149.864 6 147.744 5.12 145.078 5.12C142.411 5.12 140.278 6 138.678 7.76C137.078 9.52 136.278 11.9333 136.278 15C136.278 18.0667 137.078 20.48 138.678 22.24C140.278 24 142.411 24.88 145.078 24.88Z" fill="#D33A39"/>
</svg>
