<svg width="250" height="250" viewBox="0 0 250 250" fill="none" xmlns="http://www.w3.org/2000/svg">
<path d="M204.565 51.5002C192.125 23.1352 162.265 12.4552 138.705 31.5002C129.505 38.9302 123.765 50.7552 112.5 55.5002C101.93 59.9502 88.5401 58.6402 77.1101 61.0502C52.7701 66.1502 20.0001 85.5002 22.5002 115.315C23.5952 128.375 32.4051 142.88 36.7601 155.1C41.7601 169.16 44.7601 186.75 57.9951 195.155C80.6852 209.585 108.055 197.79 128.495 186.155C139.495 179.9 145.55 176.055 157.395 178.2C168.36 180.2 178.235 187.2 188.95 178.895C196.995 172.66 197.66 160.025 204.415 152.605C212.025 144.245 219.74 143.64 223.695 131.075C228.49 115.83 221.425 106.305 216.65 92.6852C211.875 79.0652 210.425 64.8452 204.565 51.5002Z" fill="#D33A39"/>
<g opacity="0.7">
<path opacity="0.7" d="M204.565 51.5002C192.125 23.1352 162.265 12.4552 138.705 31.5002C129.505 38.9302 123.765 50.7552 112.5 55.5002C101.93 59.9502 88.5401 58.6402 77.1101 61.0502C52.7701 66.1502 20.0001 85.5002 22.5002 115.315C23.5952 128.375 32.4051 142.88 36.7601 155.1C41.7601 169.16 44.7601 186.75 57.9951 195.155C80.6852 209.585 108.055 197.79 128.495 186.155C139.495 179.9 145.55 176.055 157.395 178.2C168.36 180.2 178.235 187.2 188.95 178.895C196.995 172.66 197.66 160.025 204.415 152.605C212.025 144.245 219.74 143.64 223.695 131.075C228.49 115.83 221.425 106.305 216.65 92.6852C211.875 79.0652 210.425 64.8452 204.565 51.5002Z" fill="white"/>
</g>
<path d="M109.905 218.84C152.591 218.84 187.195 216.684 187.195 214.025C187.195 211.366 152.591 209.21 109.905 209.21C67.2191 209.21 32.6152 211.366 32.6152 214.025C32.6152 216.684 67.2191 218.84 109.905 218.84Z" fill="#D33A39"/>
<path opacity="0.8" d="M109.905 218.84C152.591 218.84 187.195 216.684 187.195 214.025C187.195 211.366 152.591 209.21 109.905 209.21C67.2191 209.21 32.6152 211.366 32.6152 214.025C32.6152 216.684 67.2191 218.84 109.905 218.84Z" fill="white"/>
<path d="M167.985 30.9297H90.2697C84.9042 30.9297 80.5547 35.2792 80.5547 40.6447V204.715C80.5547 210.08 84.9042 214.43 90.2697 214.43H167.985C173.35 214.43 177.7 210.08 177.7 204.715V40.6447C177.7 35.2792 173.35 30.9297 167.985 30.9297Z" fill="#263238"/>
<path d="M173.379 51.0801H84.8691V194.28H173.379V51.0801Z" fill="white" stroke="#263238" stroke-width="1.33739" stroke-miterlimit="10"/>
<path d="M142.694 109.066C150.186 101.574 150.186 89.4264 142.694 81.9342C135.201 74.4419 123.054 74.4419 115.562 81.9342C108.07 89.4264 108.07 101.574 115.562 109.066C123.054 116.558 135.201 116.558 142.694 109.066Z" fill="#D33A39"/>
<path d="M154.315 185.275H103.945C103.832 185.275 103.719 185.254 103.614 185.211C103.51 185.168 103.414 185.105 103.334 185.025C103.253 184.945 103.19 184.85 103.146 184.745C103.102 184.64 103.08 184.528 103.08 184.415C103.079 184.301 103.101 184.188 103.145 184.083C103.188 183.978 103.252 183.882 103.332 183.802C103.412 183.721 103.508 183.658 103.613 183.614C103.719 183.571 103.831 183.549 103.945 183.55H154.315C154.428 183.55 154.541 183.572 154.645 183.616C154.75 183.659 154.845 183.723 154.925 183.803C155.005 183.884 155.068 183.979 155.111 184.084C155.154 184.189 155.176 184.301 155.175 184.415C155.175 184.643 155.084 184.862 154.923 185.023C154.762 185.184 154.543 185.275 154.315 185.275Z" fill="#D33A39"/>
<path d="M155.955 125.47H102.3C101.193 125.47 100.295 126.367 100.295 127.475V133.8C100.295 134.907 101.193 135.805 102.3 135.805H155.955C157.062 135.805 157.96 134.907 157.96 133.8V127.475C157.96 126.367 157.062 125.47 155.955 125.47Z" fill="#D33A39"/>
<path d="M155.955 144.8H102.3C101.193 144.8 100.295 145.697 100.295 146.805V153.13C100.295 154.237 101.193 155.135 102.3 155.135H155.955C157.062 155.135 157.96 154.237 157.96 153.13V146.805C157.96 145.697 157.062 144.8 155.955 144.8Z" fill="#D33A39"/>
<path d="M138.679 105.069L133.034 101.819V99.1345C133.852 98.1456 134.444 96.9905 134.769 95.7495C134.964 95.8185 135.168 95.854 135.374 95.8545C136.074 95.8545 136.519 93.6845 136.594 92.1345C137.409 90.4095 136.299 89.3995 136.299 89.3995C136.299 89.3995 136.759 88.9395 137.064 87.0945C137.369 85.2495 135.989 86.0195 134.914 84.3295C133.839 82.6395 133.069 80.7995 129.539 80.7995C128.567 80.7675 127.607 81.0289 126.785 81.5496C125.963 82.0704 125.316 82.8264 124.929 83.7195C124.051 83.7227 123.175 83.825 122.319 84.0245C121.239 84.3295 120.934 87.8645 121.854 89.2495C122.266 90.0064 122.486 90.8528 122.494 91.7145C122.249 91.4145 121.994 91.3345 121.854 92.0145C121.549 93.5495 122.779 95.6995 122.779 95.6995L123.414 95.5195C123.734 96.8457 124.351 98.0819 125.219 99.1345V101.819L119.574 105.069C118.915 105.45 118.368 105.997 117.987 106.657C117.606 107.316 117.405 108.063 117.404 108.824V110.684C120.762 113.278 124.884 114.685 129.127 114.685C133.369 114.685 137.492 113.278 140.849 110.684V108.824C140.85 108.063 140.649 107.315 140.268 106.656C139.887 105.996 139.339 105.449 138.679 105.069Z" fill="#263238"/>
<path d="M107.601 152.564C107.471 152.563 107.347 152.511 107.256 152.419C107.206 152.375 107.167 152.322 107.14 152.261C107.114 152.201 107.1 152.136 107.101 152.07C107.102 151.979 107.128 151.891 107.176 151.814L108.076 150.374L106.321 150.429C106.254 150.434 106.188 150.424 106.126 150.4C106.064 150.377 106.008 150.341 105.961 150.294C105.879 150.203 105.834 150.085 105.834 149.962C105.834 149.839 105.879 149.721 105.961 149.63C106.007 149.581 106.063 149.544 106.125 149.519C106.187 149.495 106.254 149.485 106.321 149.49L108.051 149.554L107.161 148.119C107.112 148.041 107.086 147.951 107.086 147.859C107.085 147.793 107.099 147.728 107.125 147.668C107.152 147.607 107.191 147.553 107.241 147.509C107.332 147.418 107.456 147.366 107.586 147.365C107.671 147.365 107.754 147.39 107.826 147.436C107.897 147.482 107.955 147.547 107.991 147.624L108.846 149.169L109.691 147.634C109.731 147.553 109.792 147.483 109.869 147.434C109.946 147.385 110.034 147.357 110.126 147.354C110.189 147.355 110.251 147.368 110.309 147.394C110.367 147.42 110.418 147.458 110.461 147.505C110.552 147.6 110.603 147.727 110.601 147.859C110.6 147.945 110.578 148.03 110.536 148.104L109.631 149.554L111.386 149.49C111.452 149.485 111.519 149.495 111.581 149.519C111.643 149.544 111.7 149.581 111.746 149.63C111.831 149.718 111.878 149.837 111.876 149.96C111.875 150.083 111.829 150.203 111.746 150.294C111.698 150.341 111.642 150.377 111.58 150.4C111.518 150.424 111.452 150.434 111.386 150.429L109.621 150.374L110.501 151.799C110.55 151.879 110.576 151.971 110.576 152.064C110.576 152.197 110.523 152.324 110.429 152.418C110.335 152.512 110.208 152.564 110.076 152.564C109.99 152.563 109.906 152.537 109.835 152.489C109.764 152.441 109.709 152.374 109.676 152.294L108.841 150.794L108.011 152.294C107.974 152.373 107.916 152.44 107.844 152.487C107.771 152.535 107.687 152.562 107.601 152.564Z" fill="#263238"/>
<path d="M115.709 152.564C115.58 152.563 115.456 152.511 115.364 152.419C115.315 152.375 115.276 152.322 115.249 152.261C115.223 152.201 115.209 152.136 115.209 152.07C115.211 151.979 115.237 151.891 115.284 151.814L116.184 150.374L114.434 150.429C114.368 150.433 114.301 150.422 114.238 150.399C114.176 150.376 114.118 150.34 114.069 150.294C114.003 150.226 113.959 150.139 113.943 150.045C113.926 149.951 113.939 149.855 113.978 149.768C114.017 149.681 114.082 149.608 114.163 149.558C114.245 149.509 114.339 149.485 114.434 149.49L116.159 149.554L115.269 148.119C115.221 148.041 115.195 147.951 115.194 147.86C115.194 147.794 115.208 147.728 115.234 147.668C115.261 147.607 115.3 147.553 115.349 147.509C115.441 147.418 115.565 147.366 115.694 147.365C115.78 147.365 115.863 147.39 115.935 147.436C116.006 147.482 116.064 147.547 116.099 147.625L116.954 149.169L117.799 147.634C117.84 147.553 117.901 147.483 117.978 147.434C118.055 147.385 118.143 147.357 118.234 147.354C118.298 147.354 118.36 147.367 118.418 147.393C118.476 147.419 118.528 147.457 118.569 147.505C118.616 147.551 118.652 147.607 118.677 147.668C118.702 147.728 118.715 147.794 118.714 147.86C118.713 147.946 118.689 148.03 118.644 148.104L117.739 149.554L119.499 149.499C119.565 149.495 119.631 149.505 119.693 149.53C119.754 149.554 119.809 149.591 119.854 149.639C119.94 149.728 119.986 149.847 119.984 149.969C119.984 150.093 119.938 150.213 119.854 150.304C119.808 150.351 119.753 150.387 119.692 150.41C119.63 150.434 119.565 150.444 119.499 150.44L117.729 150.384L118.609 151.809C118.659 151.889 118.685 151.981 118.684 152.074C118.684 152.207 118.632 152.334 118.538 152.428C118.444 152.522 118.317 152.574 118.184 152.574C118.099 152.573 118.015 152.547 117.944 152.499C117.873 152.451 117.818 152.384 117.784 152.304L116.949 150.804L116.119 152.304C116.081 152.381 116.023 152.446 115.951 152.492C115.878 152.537 115.795 152.563 115.709 152.564Z" fill="#263238"/>
<path d="M123.825 152.565C123.694 152.564 123.568 152.512 123.475 152.42C123.426 152.376 123.386 152.322 123.36 152.261C123.333 152.201 123.319 152.136 123.32 152.07C123.321 151.979 123.347 151.891 123.395 151.815L124.295 150.375L122.545 150.429C122.45 150.433 122.357 150.409 122.277 150.359C122.197 150.31 122.133 150.238 122.094 150.152C122.054 150.066 122.042 149.971 122.057 149.878C122.072 149.785 122.115 149.698 122.18 149.63C122.227 149.581 122.284 149.544 122.347 149.52C122.41 149.496 122.477 149.485 122.545 149.49L124.27 149.554L123.38 148.119C123.331 148.041 123.305 147.951 123.305 147.86C123.306 147.794 123.321 147.729 123.347 147.669C123.374 147.609 123.412 147.555 123.46 147.509C123.553 147.417 123.679 147.365 123.81 147.365C123.894 147.366 123.976 147.391 124.047 147.437C124.118 147.483 124.174 147.548 124.21 147.625L125.065 149.169L125.91 147.634C125.95 147.553 126.012 147.483 126.088 147.434C126.165 147.385 126.254 147.357 126.345 147.354C126.408 147.354 126.471 147.367 126.528 147.393C126.586 147.419 126.638 147.457 126.68 147.505C126.726 147.551 126.763 147.607 126.788 147.668C126.813 147.728 126.825 147.794 126.825 147.86C126.823 147.946 126.799 148.03 126.755 148.104L125.85 149.554L127.61 149.49C127.674 149.483 127.74 149.49 127.801 149.511C127.863 149.532 127.919 149.566 127.967 149.611C128.014 149.655 128.051 149.709 128.076 149.77C128.101 149.83 128.112 149.895 128.11 149.96C128.111 150.083 128.066 150.202 127.985 150.295C127.938 150.341 127.881 150.377 127.819 150.401C127.757 150.424 127.691 150.434 127.625 150.429L125.86 150.375L126.735 151.8C126.784 151.879 126.81 151.971 126.81 152.065C126.808 152.13 126.794 152.195 126.767 152.255C126.74 152.315 126.702 152.369 126.655 152.414C126.611 152.461 126.559 152.499 126.5 152.525C126.442 152.55 126.379 152.564 126.315 152.565C126.23 152.563 126.147 152.537 126.077 152.489C126.007 152.441 125.952 152.373 125.92 152.295L125.08 150.795L124.25 152.295C124.212 152.376 124.152 152.444 124.077 152.492C124.002 152.54 123.914 152.565 123.825 152.565Z" fill="#263238"/>
<path d="M131.936 152.565C131.804 152.564 131.679 152.512 131.586 152.42C131.491 152.327 131.438 152.201 131.436 152.07C131.434 151.98 131.458 151.891 131.506 151.815L132.406 150.375L130.656 150.429C130.589 150.433 130.522 150.422 130.459 150.399C130.397 150.376 130.339 150.34 130.291 150.295C130.209 150.203 130.164 150.085 130.164 149.962C130.164 149.839 130.209 149.721 130.291 149.63C130.339 149.583 130.396 149.546 130.459 149.522C130.522 149.498 130.589 149.487 130.656 149.49L132.386 149.554L131.501 148.119C131.452 148.041 131.426 147.951 131.426 147.86C131.427 147.794 131.442 147.729 131.468 147.669C131.495 147.609 131.533 147.555 131.581 147.509C131.674 147.417 131.799 147.365 131.931 147.365C132.016 147.365 132.099 147.39 132.171 147.436C132.243 147.482 132.3 147.547 132.336 147.625L133.186 149.169L134.031 147.634C134.071 147.553 134.132 147.483 134.209 147.434C134.286 147.385 134.374 147.357 134.466 147.354C134.529 147.354 134.592 147.367 134.649 147.393C134.707 147.419 134.759 147.457 134.801 147.505C134.847 147.551 134.884 147.607 134.909 147.668C134.933 147.728 134.946 147.794 134.946 147.86C134.944 147.946 134.92 148.03 134.876 148.104L133.971 149.554L135.731 149.49C135.795 149.483 135.861 149.49 135.922 149.511C135.984 149.532 136.04 149.566 136.088 149.611C136.135 149.655 136.172 149.709 136.197 149.77C136.222 149.83 136.233 149.895 136.231 149.96C136.232 150.083 136.187 150.202 136.106 150.295C136.059 150.341 136.002 150.377 135.94 150.401C135.878 150.424 135.812 150.434 135.746 150.429L133.981 150.375L134.856 151.8C134.905 151.879 134.931 151.971 134.931 152.065C134.931 152.131 134.918 152.196 134.891 152.256C134.864 152.317 134.825 152.37 134.776 152.414C134.732 152.461 134.68 152.499 134.621 152.525C134.563 152.55 134.5 152.564 134.436 152.565C134.351 152.563 134.268 152.537 134.198 152.489C134.127 152.441 134.073 152.373 134.041 152.295L133.201 150.795L132.371 152.295C132.333 152.377 132.271 152.447 132.194 152.495C132.116 152.543 132.027 152.567 131.936 152.565Z" fill="#263238"/>
<path d="M140.045 152.565C139.914 152.564 139.788 152.512 139.695 152.42C139.618 152.341 139.568 152.239 139.555 152.13C139.541 152.02 139.564 151.91 139.62 151.815L140.515 150.375L138.765 150.429C138.698 150.433 138.632 150.422 138.569 150.399C138.506 150.376 138.449 150.34 138.4 150.295C138.318 150.203 138.273 150.085 138.273 149.962C138.273 149.839 138.318 149.721 138.4 149.63C138.448 149.583 138.506 149.546 138.568 149.522C138.631 149.498 138.698 149.487 138.765 149.49L140.495 149.554L139.605 148.119C139.557 148.041 139.531 147.951 139.53 147.86C139.532 147.728 139.586 147.602 139.68 147.509C139.773 147.417 139.899 147.365 140.03 147.365C140.115 147.365 140.198 147.39 140.27 147.436C140.342 147.482 140.399 147.547 140.435 147.625L141.285 149.17L142.13 147.634C142.17 147.553 142.232 147.483 142.308 147.434C142.385 147.385 142.474 147.357 142.565 147.354C142.629 147.354 142.692 147.367 142.751 147.393C142.81 147.419 142.862 147.457 142.905 147.505C142.997 147.6 143.047 147.727 143.045 147.86C143.043 147.946 143.019 148.03 142.975 148.104L142.07 149.554L143.83 149.49C143.895 149.483 143.96 149.49 144.022 149.511C144.083 149.532 144.14 149.566 144.187 149.611C144.234 149.655 144.272 149.709 144.296 149.77C144.321 149.83 144.332 149.895 144.33 149.96C144.331 150.083 144.287 150.202 144.205 150.295C144.158 150.341 144.101 150.377 144.039 150.401C143.977 150.424 143.911 150.434 143.845 150.429L142.08 150.375L142.955 151.8C143.004 151.879 143.03 151.971 143.03 152.065C143.031 152.131 143.017 152.196 142.99 152.256C142.963 152.317 142.924 152.37 142.875 152.414C142.832 152.461 142.779 152.499 142.72 152.525C142.662 152.55 142.599 152.564 142.535 152.565C142.45 152.563 142.367 152.537 142.297 152.489C142.227 152.441 142.172 152.373 142.14 152.295L141.3 150.795L140.47 152.295C140.433 152.376 140.373 152.444 140.297 152.492C140.222 152.54 140.134 152.565 140.045 152.565Z" fill="#263238"/>
<path d="M148.155 152.564C148.026 152.563 147.902 152.511 147.81 152.419C147.761 152.375 147.722 152.322 147.695 152.261C147.668 152.201 147.655 152.136 147.655 152.07C147.657 151.979 147.682 151.891 147.73 151.814L148.625 150.374L146.875 150.429C146.811 150.434 146.746 150.426 146.685 150.404C146.624 150.383 146.569 150.349 146.522 150.305C146.474 150.26 146.437 150.207 146.412 150.147C146.387 150.088 146.374 150.024 146.375 149.96C146.375 149.898 146.386 149.838 146.41 149.781C146.433 149.724 146.467 149.673 146.51 149.63C146.556 149.581 146.612 149.544 146.674 149.519C146.737 149.495 146.803 149.485 146.87 149.49L148.6 149.554L147.71 148.119C147.662 148.041 147.636 147.951 147.635 147.86C147.637 147.728 147.691 147.602 147.785 147.509C147.878 147.417 148.004 147.365 148.135 147.365C148.22 147.365 148.304 147.39 148.375 147.436C148.447 147.482 148.504 147.547 148.54 147.625L149.39 149.169L150.24 147.634C150.28 147.553 150.341 147.484 150.416 147.435C150.492 147.386 150.58 147.358 150.67 147.354C150.734 147.354 150.797 147.367 150.856 147.393C150.915 147.419 150.967 147.457 151.01 147.505C151.102 147.6 151.152 147.727 151.15 147.86C151.15 147.945 151.127 148.03 151.085 148.104L150.18 149.554L151.935 149.49C152.002 149.485 152.068 149.495 152.131 149.519C152.193 149.544 152.249 149.581 152.295 149.63C152.38 149.718 152.427 149.837 152.425 149.96C152.425 150.083 152.378 150.203 152.295 150.294C152.248 150.341 152.192 150.377 152.129 150.401C152.067 150.424 152.001 150.434 151.935 150.429L150.17 150.374L151.045 151.8C151.094 151.879 151.12 151.971 151.12 152.064C151.118 152.196 151.064 152.322 150.97 152.414C150.879 152.507 150.755 152.561 150.625 152.564C150.54 152.563 150.457 152.537 150.387 152.489C150.317 152.441 150.262 152.373 150.23 152.294L149.39 150.794L148.56 152.294C148.524 152.373 148.467 152.439 148.396 152.487C148.324 152.534 148.241 152.561 148.155 152.564Z" fill="#263238"/>
<g style="mix-blend-mode:multiply">
<path d="M173.379 51.2695H84.8691V56.8145H173.379V51.2695Z" fill="#D33A39"/>
</g>
<path d="M138.749 41.0546H119.499C119.152 41.0546 118.819 40.9166 118.573 40.6709C118.327 40.4252 118.189 40.092 118.189 39.7446C118.189 39.3971 118.327 39.0639 118.573 38.8183C118.819 38.5726 119.152 38.4346 119.499 38.4346H138.749C139.097 38.4346 139.43 38.5726 139.676 38.8183C139.921 39.0639 140.059 39.3971 140.059 39.7446C140.059 40.092 139.921 40.4252 139.676 40.6709C139.43 40.9166 139.097 41.0546 138.749 41.0546Z" fill="#D33A39" stroke="#263238" stroke-width="1.33739" stroke-linecap="round" stroke-linejoin="round"/>
<path d="M134.375 202.369C134.376 201.33 134.069 200.315 133.492 199.451C132.916 198.587 132.096 197.913 131.136 197.515C130.177 197.117 129.121 197.012 128.102 197.215C127.083 197.417 126.147 197.917 125.413 198.652C124.678 199.386 124.178 200.322 123.976 201.341C123.773 202.36 123.878 203.416 124.276 204.376C124.674 205.335 125.347 206.155 126.211 206.732C127.075 207.308 128.091 207.615 129.13 207.614C130.521 207.613 131.854 207.06 132.837 206.077C133.821 205.093 134.374 203.76 134.375 202.369Z" fill="#D33A39"/>
<path d="M131.789 199.71H126.469V205.03H131.789V199.71Z" fill="#D33A39" stroke="#263238" stroke-width="1.33739" stroke-linecap="round" stroke-linejoin="round"/>
<path d="M192.5 142C192.5 142 185.53 124.29 191.735 122.185C198.195 119.99 197.91 131.685 197.66 137.385C197.135 149.565 195.79 151.83 194.785 148.855L192.5 142ZM190.405 155.815C192.32 158.315 192.86 155.725 189.405 144.03C187.785 138.53 184.265 127.405 178.865 131.58C173.68 135.58 186.02 150.08 186.02 150.08L190.405 155.815ZM186.705 165.965C188.53 167.585 188.565 165.54 184.23 157.095C182.195 153.14 177.89 145.135 174.365 149.095C170.98 152.915 182.515 162.2 182.515 162.2L186.705 165.965ZM182.705 178.035C184.53 179.66 184.565 177.61 180.23 169.17C178.195 165.215 173.89 157.205 170.365 161.17C167 165 178.5 174.285 178.5 174.285L182.705 178.035ZM194.255 153.465C191.335 154.605 193.655 155.845 205.85 155.81C211.57 155.81 223.25 155.55 220.76 149.195C218.375 143.09 201.005 150.865 201.005 150.865L194.255 153.465ZM190.93 161.585C187.84 162.12 189.87 163.8 201.83 166.19C207.435 167.315 218.93 169.39 217.755 162.69C216.63 156.23 198.06 160.4 198.06 160.4L190.93 161.585ZM187.21 171.5C184.58 171.88 186.26 173.345 196.315 175.645C201.03 176.725 210.705 178.75 209.865 173.035C209.065 167.535 193.265 170.645 193.265 170.645L187.21 171.5ZM184.385 180.685C181.81 181.34 183.635 182.62 193.885 183.84C198.685 184.41 208.52 185.4 207.085 179.805C205.7 174.435 190.32 179.19 190.32 179.19L184.385 180.685ZM199.455 143.5C197.955 146.86 201.07 146.35 211.66 137.11C216.62 132.775 226.57 123.705 218.69 119.19C211.125 114.85 202.99 135.79 202.99 135.79L199.455 143.5ZM184.775 192.65C183.19 193.575 184.745 193.935 192.015 192.485C195.425 191.81 202.36 190.31 200.015 187.35C197.745 184.5 188.445 190.5 188.445 190.5L184.775 192.65Z" fill="#D33A39"/>
<path opacity="0.3" d="M192.5 142C192.5 142 185.53 124.29 191.735 122.185C198.195 119.99 197.91 131.685 197.66 137.385C197.135 149.565 195.79 151.83 194.785 148.855L192.5 142ZM190.405 155.815C192.32 158.315 192.86 155.725 189.405 144.03C187.785 138.53 184.265 127.405 178.865 131.58C173.68 135.58 186.02 150.08 186.02 150.08L190.405 155.815ZM186.705 165.965C188.53 167.585 188.565 165.54 184.23 157.095C182.195 153.14 177.89 145.135 174.365 149.095C170.98 152.915 182.515 162.2 182.515 162.2L186.705 165.965ZM182.705 178.035C184.53 179.66 184.565 177.61 180.23 169.17C178.195 165.215 173.89 157.205 170.365 161.17C167 165 178.5 174.285 178.5 174.285L182.705 178.035ZM194.255 153.465C191.335 154.605 193.655 155.845 205.85 155.81C211.57 155.81 223.25 155.55 220.76 149.195C218.375 143.09 201.005 150.865 201.005 150.865L194.255 153.465ZM190.93 161.585C187.84 162.12 189.87 163.8 201.83 166.19C207.435 167.315 218.93 169.39 217.755 162.69C216.63 156.23 198.06 160.4 198.06 160.4L190.93 161.585ZM187.21 171.5C184.58 171.88 186.26 173.345 196.315 175.645C201.03 176.725 210.705 178.75 209.865 173.035C209.065 167.535 193.265 170.645 193.265 170.645L187.21 171.5ZM184.385 180.685C181.81 181.34 183.635 182.62 193.885 183.84C198.685 184.41 208.52 185.4 207.085 179.805C205.7 174.435 190.32 179.19 190.32 179.19L184.385 180.685ZM199.455 143.5C197.955 146.86 201.07 146.35 211.66 137.11C216.62 132.775 226.57 123.705 218.69 119.19C211.125 114.85 202.99 135.79 202.99 135.79L199.455 143.5ZM184.775 192.65C183.19 193.575 184.745 193.935 192.015 192.485C195.425 191.81 202.36 190.31 200.015 187.35C197.745 184.5 188.445 190.5 188.445 190.5L184.775 192.65Z" fill="white"/>
<path d="M195.574 150.245L194.359 130.03L195.574 150.245ZM191.729 156.915L184.049 139.53L191.729 156.915ZM211.549 151.86L193.144 154.5L211.549 151.86ZM187.749 166.285L177.784 153.5L187.749 166.285ZM189.499 162.365L203.229 163.055L189.499 162.365ZM186.249 172.17L196.749 173.21L186.249 172.17ZM183.714 178.4L178.499 170.555L183.714 178.4ZM183.114 181.17L195.459 181.285L183.114 181.17ZM180.614 204.33C180.697 204.324 180.773 204.285 180.828 204.222C180.882 204.16 180.909 204.078 180.904 203.995C180.119 192.205 184.679 172.895 191.994 157.045C196.669 146.915 214.994 127.005 215.189 126.805C215.248 126.746 215.281 126.666 215.281 126.583C215.281 126.499 215.248 126.419 215.189 126.36C215.16 126.331 215.126 126.308 215.088 126.292C215.05 126.277 215.01 126.269 214.969 126.269C214.928 126.269 214.887 126.277 214.85 126.292C214.812 126.308 214.778 126.331 214.749 126.36C214.564 126.56 196.164 146.545 191.449 156.765C183.999 173 179.499 191.96 180.299 204.035C180.305 204.115 180.341 204.189 180.399 204.244C180.457 204.298 180.534 204.329 180.614 204.33ZM195.569 150.555C195.652 150.55 195.729 150.512 195.784 150.451C195.839 150.389 195.868 150.308 195.864 150.225L194.669 130C194.667 129.959 194.657 129.919 194.639 129.881C194.621 129.844 194.597 129.811 194.566 129.783C194.535 129.756 194.499 129.735 194.46 129.721C194.421 129.708 194.38 129.702 194.339 129.705C194.256 129.71 194.179 129.748 194.124 129.81C194.068 129.871 194.04 129.952 194.044 130.035L195.259 150.25C195.263 150.33 195.297 150.405 195.355 150.46C195.413 150.515 195.489 150.545 195.569 150.545V150.555ZM191.839 157.2C191.914 157.166 191.972 157.104 192.002 157.028C192.032 156.951 192.031 156.866 191.999 156.79L184.314 139.405C184.281 139.33 184.219 139.27 184.142 139.24C184.065 139.21 183.979 139.212 183.904 139.245C183.828 139.278 183.769 139.34 183.739 139.417C183.709 139.494 183.711 139.58 183.744 139.655L191.424 157.04C191.448 157.096 191.488 157.144 191.538 157.177C191.589 157.211 191.648 157.229 191.709 157.23C191.761 157.233 191.812 157.223 191.859 157.2H191.839ZM193.169 154.8L211.564 152.17C211.608 152.169 211.652 152.159 211.692 152.14C211.732 152.121 211.768 152.094 211.797 152.06C211.826 152.026 211.847 151.987 211.86 151.944C211.872 151.901 211.875 151.856 211.869 151.812C211.863 151.768 211.848 151.726 211.825 151.688C211.801 151.651 211.77 151.618 211.733 151.594C211.696 151.569 211.654 151.552 211.611 151.545C211.567 151.537 211.522 151.539 211.479 151.55L193.084 154.18C193.002 154.185 192.925 154.223 192.871 154.285C192.816 154.347 192.789 154.428 192.794 154.51C192.799 154.592 192.837 154.669 192.899 154.723C192.961 154.778 193.042 154.805 193.124 154.8H193.169ZM187.924 166.535C187.989 166.484 188.032 166.409 188.042 166.326C188.052 166.244 188.03 166.161 187.979 166.095L178.009 153.285C177.958 153.219 177.883 153.176 177.8 153.165C177.717 153.154 177.633 153.177 177.566 153.228C177.5 153.279 177.457 153.354 177.446 153.437C177.435 153.52 177.458 153.604 177.509 153.67L187.499 166.5C187.528 166.538 187.565 166.568 187.607 166.589C187.65 166.609 187.697 166.62 187.744 166.62C187.819 166.616 187.889 166.586 187.944 166.535H187.924ZM203.504 163.07C203.507 162.987 203.477 162.907 203.421 162.846C203.364 162.785 203.287 162.749 203.204 162.745L189.499 162.05C189.422 162.055 189.349 162.089 189.295 162.144C189.241 162.199 189.21 162.272 189.206 162.349C189.202 162.426 189.227 162.502 189.275 162.562C189.324 162.622 189.393 162.663 189.469 162.675L203.199 163.37C203.282 163.373 203.362 163.343 203.423 163.287C203.484 163.231 203.52 163.153 203.524 163.07H203.504ZM197.039 173.24C197.044 173.199 197.04 173.157 197.029 173.118C197.017 173.078 196.998 173.041 196.972 173.009C196.946 172.976 196.913 172.95 196.877 172.93C196.84 172.911 196.8 172.899 196.759 172.895L186.259 171.86C186.218 171.856 186.177 171.86 186.138 171.872C186.099 171.884 186.062 171.903 186.031 171.929C185.999 171.955 185.973 171.987 185.954 172.024C185.934 172.06 185.923 172.099 185.919 172.14C185.912 172.222 185.937 172.304 185.99 172.367C186.042 172.431 186.117 172.471 186.199 172.48L196.699 173.52H196.729C196.81 173.526 196.889 173.5 196.951 173.447C197.012 173.395 197.051 173.321 197.059 173.24H197.039ZM183.864 178.66C183.933 178.614 183.982 178.543 183.999 178.461C184.015 178.38 183.999 178.295 183.954 178.225L178.764 170.38C178.716 170.313 178.645 170.266 178.563 170.25C178.482 170.234 178.398 170.25 178.329 170.295C178.259 170.341 178.211 170.413 178.194 170.494C178.177 170.576 178.193 170.66 178.239 170.73L183.429 178.575C183.459 178.618 183.498 178.653 183.544 178.678C183.59 178.702 183.642 178.715 183.694 178.715C183.762 178.719 183.829 178.699 183.884 178.66H183.864ZM195.774 181.285C195.773 181.203 195.74 181.124 195.682 181.066C195.624 181.007 195.546 180.973 195.464 180.97L183.119 180.855C183.037 180.855 182.958 180.888 182.9 180.946C182.842 181.004 182.809 181.083 182.809 181.165C182.808 181.206 182.815 181.248 182.83 181.286C182.845 181.325 182.867 181.36 182.896 181.389C182.925 181.419 182.96 181.442 182.998 181.457C183.037 181.473 183.078 181.481 183.119 181.48L195.464 181.595C195.506 181.597 195.548 181.591 195.588 181.576C195.628 181.561 195.664 181.539 195.695 181.51C195.725 181.481 195.75 181.446 195.767 181.408C195.784 181.369 195.793 181.327 195.794 181.285H195.774ZM179.209 199.745C179.234 199.69 181.339 193.89 187.669 192.505C187.75 192.487 187.821 192.438 187.866 192.367C187.911 192.297 187.927 192.212 187.909 192.13C187.889 192.05 187.838 191.981 187.769 191.937C187.699 191.894 187.615 191.878 187.534 191.895C180.859 193.355 178.644 199.48 178.619 199.54C178.593 199.619 178.599 199.705 178.635 199.78C178.672 199.854 178.736 199.912 178.814 199.94H178.914C178.98 199.946 179.047 199.93 179.104 199.895C179.16 199.86 179.204 199.807 179.229 199.745H179.209ZM180.614 204.33C180.697 204.324 180.773 204.285 180.828 204.222C180.882 204.16 180.909 204.078 180.904 203.995C180.119 192.205 184.679 172.895 191.994 157.045C196.669 146.915 214.994 127.005 215.189 126.805C215.248 126.746 215.281 126.666 215.281 126.583C215.281 126.499 215.248 126.419 215.189 126.36C215.16 126.331 215.126 126.308 215.088 126.292C215.05 126.277 215.01 126.269 214.969 126.269C214.928 126.269 214.887 126.277 214.85 126.292C214.812 126.308 214.778 126.331 214.749 126.36C214.564 126.56 196.164 146.545 191.449 156.765C183.999 173 179.499 191.96 180.299 204.035C180.305 204.115 180.341 204.189 180.399 204.244C180.457 204.298 180.534 204.329 180.614 204.33ZM195.569 150.555C195.652 150.55 195.729 150.512 195.784 150.451C195.839 150.389 195.868 150.308 195.864 150.225L194.669 130C194.667 129.959 194.657 129.919 194.639 129.881C194.621 129.844 194.597 129.811 194.566 129.783C194.535 129.756 194.499 129.735 194.46 129.721C194.421 129.708 194.38 129.702 194.339 129.705C194.256 129.71 194.179 129.748 194.124 129.81C194.068 129.871 194.04 129.952 194.044 130.035L195.259 150.25C195.263 150.33 195.297 150.405 195.355 150.46C195.413 150.515 195.489 150.545 195.569 150.545V150.555ZM191.839 157.2C191.914 157.166 191.972 157.104 192.002 157.028C192.032 156.951 192.031 156.866 191.999 156.79L184.314 139.405C184.281 139.33 184.219 139.27 184.142 139.24C184.065 139.21 183.979 139.212 183.904 139.245C183.828 139.278 183.769 139.34 183.739 139.417C183.709 139.494 183.711 139.58 183.744 139.655L191.424 157.04C191.448 157.096 191.488 157.144 191.538 157.177C191.589 157.211 191.648 157.229 191.709 157.23C191.761 157.233 191.812 157.223 191.859 157.2H191.839ZM193.169 154.8L211.564 152.17C211.608 152.169 211.652 152.159 211.692 152.14C211.732 152.121 211.768 152.094 211.797 152.06C211.826 152.026 211.847 151.987 211.86 151.944C211.872 151.901 211.875 151.856 211.869 151.812C211.863 151.768 211.848 151.726 211.825 151.688C211.801 151.651 211.77 151.618 211.733 151.594C211.696 151.569 211.654 151.552 211.611 151.545C211.567 151.537 211.522 151.539 211.479 151.55L193.084 154.18C193.002 154.185 192.925 154.223 192.871 154.285C192.816 154.347 192.789 154.428 192.794 154.51C192.799 154.592 192.837 154.669 192.899 154.723C192.961 154.778 193.042 154.805 193.124 154.8H193.169ZM187.924 166.535C187.989 166.484 188.032 166.409 188.042 166.326C188.052 166.244 188.03 166.161 187.979 166.095L178.009 153.285C177.984 153.252 177.952 153.225 177.916 153.204C177.88 153.183 177.841 153.17 177.8 153.165C177.758 153.159 177.717 153.162 177.677 153.173C177.637 153.184 177.599 153.202 177.566 153.228C177.534 153.253 177.506 153.284 177.485 153.32C177.465 153.356 177.451 153.396 177.446 153.437C177.441 153.478 177.443 153.52 177.454 153.56C177.465 153.6 177.484 153.637 177.509 153.67L187.499 166.5C187.528 166.538 187.565 166.568 187.607 166.589C187.65 166.609 187.697 166.62 187.744 166.62C187.819 166.616 187.889 166.586 187.944 166.535H187.924ZM203.504 163.07C203.507 162.987 203.477 162.907 203.421 162.846C203.364 162.785 203.287 162.749 203.204 162.745L189.499 162.05C189.422 162.055 189.349 162.089 189.295 162.144C189.241 162.199 189.21 162.272 189.206 162.349C189.202 162.426 189.227 162.502 189.275 162.562C189.324 162.622 189.393 162.663 189.469 162.675L203.199 163.37C203.282 163.373 203.362 163.343 203.423 163.287C203.484 163.231 203.52 163.153 203.524 163.07H203.504ZM197.039 173.24C197.044 173.199 197.04 173.157 197.029 173.118C197.017 173.078 196.998 173.041 196.972 173.009C196.946 172.976 196.913 172.95 196.877 172.93C196.84 172.911 196.8 172.899 196.759 172.895L186.259 171.86C186.218 171.856 186.177 171.86 186.138 171.872C186.099 171.884 186.062 171.903 186.031 171.929C185.999 171.955 185.973 171.987 185.954 172.024C185.934 172.06 185.923 172.099 185.919 172.14C185.912 172.222 185.937 172.304 185.99 172.367C186.042 172.431 186.117 172.471 186.199 172.48L196.699 173.52H196.729C196.81 173.526 196.889 173.5 196.951 173.447C197.012 173.395 197.051 173.321 197.059 173.24H197.039ZM183.864 178.66C183.933 178.614 183.982 178.543 183.999 178.461C184.015 178.38 183.999 178.295 183.954 178.225L178.764 170.38C178.716 170.313 178.645 170.266 178.563 170.25C178.482 170.234 178.398 170.25 178.329 170.295C178.259 170.341 178.211 170.413 178.194 170.494C178.177 170.576 178.193 170.66 178.239 170.73L183.429 178.575C183.459 178.618 183.498 178.653 183.544 178.678C183.59 178.702 183.642 178.715 183.694 178.715C183.762 178.719 183.829 178.699 183.884 178.66H183.864ZM195.774 181.285C195.773 181.203 195.74 181.124 195.682 181.066C195.624 181.007 195.546 180.973 195.464 180.97L183.119 180.855C183.037 180.855 182.958 180.888 182.9 180.946C182.842 181.004 182.809 181.083 182.809 181.165C182.808 181.206 182.815 181.248 182.83 181.286C182.845 181.325 182.867 181.36 182.896 181.389C182.925 181.419 182.96 181.442 182.998 181.457C183.037 181.473 183.078 181.481 183.119 181.48L195.464 181.595C195.506 181.597 195.548 181.591 195.588 181.576C195.628 181.561 195.664 181.539 195.695 181.51C195.725 181.481 195.75 181.446 195.767 181.408C195.784 181.369 195.793 181.327 195.794 181.285H195.774ZM179.209 199.745C179.234 199.69 181.339 193.89 187.669 192.505C187.75 192.487 187.821 192.438 187.866 192.367C187.911 192.297 187.927 192.212 187.909 192.13C187.889 192.05 187.838 191.981 187.769 191.937C187.699 191.894 187.615 191.878 187.534 191.895C180.859 193.355 178.644 199.48 178.619 199.54C178.593 199.619 178.599 199.705 178.635 199.78C178.672 199.854 178.736 199.912 178.814 199.94H178.914C178.98 199.946 179.047 199.93 179.104 199.895C179.16 199.86 179.204 199.807 179.229 199.745H179.209Z" fill="#D33A39"/>
<path opacity="0.2" d="M195.574 150.245L194.359 130.03L195.574 150.245ZM191.729 156.915L184.049 139.53L191.729 156.915ZM211.549 151.86L193.144 154.5L211.549 151.86ZM187.749 166.285L177.784 153.5L187.749 166.285ZM189.499 162.365L203.229 163.055L189.499 162.365ZM186.249 172.17L196.749 173.21L186.249 172.17ZM183.714 178.4L178.499 170.555L183.714 178.4ZM183.114 181.17L195.459 181.285L183.114 181.17ZM180.614 204.33C180.697 204.324 180.773 204.285 180.828 204.222C180.882 204.16 180.909 204.078 180.904 203.995C180.119 192.205 184.679 172.895 191.994 157.045C196.669 146.915 214.994 127.005 215.189 126.805C215.248 126.746 215.281 126.666 215.281 126.583C215.281 126.499 215.248 126.419 215.189 126.36C215.16 126.331 215.126 126.308 215.088 126.292C215.05 126.277 215.01 126.269 214.969 126.269C214.928 126.269 214.887 126.277 214.85 126.292C214.812 126.308 214.778 126.331 214.749 126.36C214.564 126.56 196.164 146.545 191.449 156.765C183.999 173 179.499 191.96 180.299 204.035C180.305 204.115 180.341 204.189 180.399 204.244C180.457 204.298 180.534 204.329 180.614 204.33ZM195.569 150.555C195.652 150.55 195.729 150.512 195.784 150.451C195.839 150.389 195.868 150.308 195.864 150.225L194.669 130C194.667 129.959 194.657 129.919 194.639 129.881C194.621 129.844 194.597 129.811 194.566 129.783C194.535 129.756 194.499 129.735 194.46 129.721C194.421 129.708 194.38 129.702 194.339 129.705C194.256 129.71 194.179 129.748 194.124 129.81C194.068 129.871 194.04 129.952 194.044 130.035L195.259 150.25C195.263 150.33 195.297 150.405 195.355 150.46C195.413 150.515 195.489 150.545 195.569 150.545V150.555ZM191.839 157.2C191.914 157.166 191.972 157.104 192.002 157.028C192.032 156.951 192.031 156.866 191.999 156.79L184.314 139.405C184.281 139.33 184.219 139.27 184.142 139.24C184.065 139.21 183.979 139.212 183.904 139.245C183.828 139.278 183.769 139.34 183.739 139.417C183.709 139.494 183.711 139.58 183.744 139.655L191.424 157.04C191.448 157.096 191.488 157.144 191.538 157.177C191.589 157.211 191.648 157.229 191.709 157.23C191.761 157.233 191.812 157.223 191.859 157.2H191.839ZM193.169 154.8L211.564 152.17C211.608 152.169 211.652 152.159 211.692 152.14C211.732 152.121 211.768 152.094 211.797 152.06C211.826 152.026 211.847 151.987 211.86 151.944C211.872 151.901 211.875 151.856 211.869 151.812C211.863 151.768 211.848 151.726 211.825 151.688C211.801 151.651 211.77 151.618 211.733 151.594C211.696 151.569 211.654 151.552 211.611 151.545C211.567 151.537 211.522 151.539 211.479 151.55L193.084 154.18C193.002 154.185 192.925 154.223 192.871 154.285C192.816 154.347 192.789 154.428 192.794 154.51C192.799 154.592 192.837 154.669 192.899 154.723C192.961 154.778 193.042 154.805 193.124 154.8H193.169ZM187.924 166.535C187.989 166.484 188.032 166.409 188.042 166.326C188.052 166.244 188.03 166.161 187.979 166.095L178.009 153.285C177.958 153.219 177.883 153.176 177.8 153.165C177.717 153.154 177.633 153.177 177.566 153.228C177.5 153.279 177.457 153.354 177.446 153.437C177.435 153.52 177.458 153.604 177.509 153.67L187.499 166.5C187.528 166.538 187.565 166.568 187.607 166.589C187.65 166.609 187.697 166.62 187.744 166.62C187.819 166.616 187.889 166.586 187.944 166.535H187.924ZM203.504 163.07C203.507 162.987 203.477 162.907 203.421 162.846C203.364 162.785 203.287 162.749 203.204 162.745L189.499 162.05C189.422 162.055 189.349 162.089 189.295 162.144C189.241 162.199 189.21 162.272 189.206 162.349C189.202 162.426 189.227 162.502 189.275 162.562C189.324 162.622 189.393 162.663 189.469 162.675L203.199 163.37C203.282 163.373 203.362 163.343 203.423 163.287C203.484 163.231 203.52 163.153 203.524 163.07H203.504ZM197.039 173.24C197.044 173.199 197.04 173.157 197.029 173.118C197.017 173.078 196.998 173.041 196.972 173.009C196.946 172.976 196.913 172.95 196.877 172.93C196.84 172.911 196.8 172.899 196.759 172.895L186.259 171.86C186.218 171.856 186.177 171.86 186.138 171.872C186.099 171.884 186.062 171.903 186.031 171.929C185.999 171.955 185.973 171.987 185.954 172.024C185.934 172.06 185.923 172.099 185.919 172.14C185.912 172.222 185.937 172.304 185.99 172.367C186.042 172.431 186.117 172.471 186.199 172.48L196.699 173.52H196.729C196.81 173.526 196.889 173.5 196.951 173.447C197.012 173.395 197.051 173.321 197.059 173.24H197.039ZM183.864 178.66C183.933 178.614 183.982 178.543 183.999 178.461C184.015 178.38 183.999 178.295 183.954 178.225L178.764 170.38C178.716 170.313 178.645 170.266 178.563 170.25C178.482 170.234 178.398 170.25 178.329 170.295C178.259 170.341 178.211 170.413 178.194 170.494C178.177 170.576 178.193 170.66 178.239 170.73L183.429 178.575C183.459 178.618 183.498 178.653 183.544 178.678C183.59 178.702 183.642 178.715 183.694 178.715C183.762 178.719 183.829 178.699 183.884 178.66H183.864ZM195.774 181.285C195.773 181.203 195.74 181.124 195.682 181.066C195.624 181.007 195.546 180.973 195.464 180.97L183.119 180.855C183.037 180.855 182.958 180.888 182.9 180.946C182.842 181.004 182.809 181.083 182.809 181.165C182.808 181.206 182.815 181.248 182.83 181.286C182.845 181.325 182.867 181.36 182.896 181.389C182.925 181.419 182.96 181.442 182.998 181.457C183.037 181.473 183.078 181.481 183.119 181.48L195.464 181.595C195.506 181.597 195.548 181.591 195.588 181.576C195.628 181.561 195.664 181.539 195.695 181.51C195.725 181.481 195.75 181.446 195.767 181.408C195.784 181.369 195.793 181.327 195.794 181.285H195.774ZM179.209 199.745C179.234 199.69 181.339 193.89 187.669 192.505C187.75 192.487 187.821 192.438 187.866 192.367C187.911 192.297 187.927 192.212 187.909 192.13C187.889 192.05 187.838 191.981 187.769 191.937C187.699 191.894 187.615 191.878 187.534 191.895C180.859 193.355 178.644 199.48 178.619 199.54C178.593 199.619 178.599 199.705 178.635 199.78C178.672 199.854 178.736 199.912 178.814 199.94H178.914C178.98 199.946 179.047 199.93 179.104 199.895C179.16 199.86 179.204 199.807 179.229 199.745H179.209ZM180.614 204.33C180.697 204.324 180.773 204.285 180.828 204.222C180.882 204.16 180.909 204.078 180.904 203.995C180.119 192.205 184.679 172.895 191.994 157.045C196.669 146.915 214.994 127.005 215.189 126.805C215.248 126.746 215.281 126.666 215.281 126.583C215.281 126.499 215.248 126.419 215.189 126.36C215.16 126.331 215.126 126.308 215.088 126.292C215.05 126.277 215.01 126.269 214.969 126.269C214.928 126.269 214.887 126.277 214.85 126.292C214.812 126.308 214.778 126.331 214.749 126.36C214.564 126.56 196.164 146.545 191.449 156.765C183.999 173 179.499 191.96 180.299 204.035C180.305 204.115 180.341 204.189 180.399 204.244C180.457 204.298 180.534 204.329 180.614 204.33ZM195.569 150.555C195.652 150.55 195.729 150.512 195.784 150.451C195.839 150.389 195.868 150.308 195.864 150.225L194.669 130C194.667 129.959 194.657 129.919 194.639 129.881C194.621 129.844 194.597 129.811 194.566 129.783C194.535 129.756 194.499 129.735 194.46 129.721C194.421 129.708 194.38 129.702 194.339 129.705C194.256 129.71 194.179 129.748 194.124 129.81C194.068 129.871 194.04 129.952 194.044 130.035L195.259 150.25C195.263 150.33 195.297 150.405 195.355 150.46C195.413 150.515 195.489 150.545 195.569 150.545V150.555ZM191.839 157.2C191.914 157.166 191.972 157.104 192.002 157.028C192.032 156.951 192.031 156.866 191.999 156.79L184.314 139.405C184.281 139.33 184.219 139.27 184.142 139.24C184.065 139.21 183.979 139.212 183.904 139.245C183.828 139.278 183.769 139.34 183.739 139.417C183.709 139.494 183.711 139.58 183.744 139.655L191.424 157.04C191.448 157.096 191.488 157.144 191.538 157.177C191.589 157.211 191.648 157.229 191.709 157.23C191.761 157.233 191.812 157.223 191.859 157.2H191.839ZM193.169 154.8L211.564 152.17C211.608 152.169 211.652 152.159 211.692 152.14C211.732 152.121 211.768 152.094 211.797 152.06C211.826 152.026 211.847 151.987 211.86 151.944C211.872 151.901 211.875 151.856 211.869 151.812C211.863 151.768 211.848 151.726 211.825 151.688C211.801 151.651 211.77 151.618 211.733 151.594C211.696 151.569 211.654 151.552 211.611 151.545C211.567 151.537 211.522 151.539 211.479 151.55L193.084 154.18C193.002 154.185 192.925 154.223 192.871 154.285C192.816 154.347 192.789 154.428 192.794 154.51C192.799 154.592 192.837 154.669 192.899 154.723C192.961 154.778 193.042 154.805 193.124 154.8H193.169ZM187.924 166.535C187.989 166.484 188.032 166.409 188.042 166.326C188.052 166.244 188.03 166.161 187.979 166.095L178.009 153.285C177.984 153.252 177.952 153.225 177.916 153.204C177.88 153.183 177.841 153.17 177.8 153.165C177.758 153.159 177.717 153.162 177.677 153.173C177.637 153.184 177.599 153.202 177.566 153.228C177.534 153.253 177.506 153.284 177.485 153.32C177.465 153.356 177.451 153.396 177.446 153.437C177.441 153.478 177.443 153.52 177.454 153.56C177.465 153.6 177.484 153.637 177.509 153.67L187.499 166.5C187.528 166.538 187.565 166.568 187.607 166.589C187.65 166.609 187.697 166.62 187.744 166.62C187.819 166.616 187.889 166.586 187.944 166.535H187.924ZM203.504 163.07C203.507 162.987 203.477 162.907 203.421 162.846C203.364 162.785 203.287 162.749 203.204 162.745L189.499 162.05C189.422 162.055 189.349 162.089 189.295 162.144C189.241 162.199 189.21 162.272 189.206 162.349C189.202 162.426 189.227 162.502 189.275 162.562C189.324 162.622 189.393 162.663 189.469 162.675L203.199 163.37C203.282 163.373 203.362 163.343 203.423 163.287C203.484 163.231 203.52 163.153 203.524 163.07H203.504ZM197.039 173.24C197.044 173.199 197.04 173.157 197.029 173.118C197.017 173.078 196.998 173.041 196.972 173.009C196.946 172.976 196.913 172.95 196.877 172.93C196.84 172.911 196.8 172.899 196.759 172.895L186.259 171.86C186.218 171.856 186.177 171.86 186.138 171.872C186.099 171.884 186.062 171.903 186.031 171.929C185.999 171.955 185.973 171.987 185.954 172.024C185.934 172.06 185.923 172.099 185.919 172.14C185.912 172.222 185.937 172.304 185.99 172.367C186.042 172.431 186.117 172.471 186.199 172.48L196.699 173.52H196.729C196.81 173.526 196.889 173.5 196.951 173.447C197.012 173.395 197.051 173.321 197.059 173.24H197.039ZM183.864 178.66C183.933 178.614 183.982 178.543 183.999 178.461C184.015 178.38 183.999 178.295 183.954 178.225L178.764 170.38C178.716 170.313 178.645 170.266 178.563 170.25C178.482 170.234 178.398 170.25 178.329 170.295C178.259 170.341 178.211 170.413 178.194 170.494C178.177 170.576 178.193 170.66 178.239 170.73L183.429 178.575C183.459 178.618 183.498 178.653 183.544 178.678C183.59 178.702 183.642 178.715 183.694 178.715C183.762 178.719 183.829 178.699 183.884 178.66H183.864ZM195.774 181.285C195.773 181.203 195.74 181.124 195.682 181.066C195.624 181.007 195.546 180.973 195.464 180.97L183.119 180.855C183.037 180.855 182.958 180.888 182.9 180.946C182.842 181.004 182.809 181.083 182.809 181.165C182.808 181.206 182.815 181.248 182.83 181.286C182.845 181.325 182.867 181.36 182.896 181.389C182.925 181.419 182.96 181.442 182.998 181.457C183.037 181.473 183.078 181.481 183.119 181.48L195.464 181.595C195.506 181.597 195.548 181.591 195.588 181.576C195.628 181.561 195.664 181.539 195.695 181.51C195.725 181.481 195.75 181.446 195.767 181.408C195.784 181.369 195.793 181.327 195.794 181.285H195.774ZM179.209 199.745C179.234 199.69 181.339 193.89 187.669 192.505C187.75 192.487 187.821 192.438 187.866 192.367C187.911 192.297 187.927 192.212 187.909 192.13C187.889 192.05 187.838 191.981 187.769 191.937C187.699 191.894 187.615 191.878 187.534 191.895C180.859 193.355 178.644 199.48 178.619 199.54C178.593 199.619 178.599 199.705 178.635 199.78C178.672 199.854 178.736 199.912 178.814 199.94H178.914C178.98 199.946 179.047 199.93 179.104 199.895C179.16 199.86 179.204 199.807 179.229 199.745H179.209Z" fill="black"/>
<path d="M188.78 195.515H174.625V198.445H175.86L178.415 214.43H184.99L187.545 198.445H188.78V195.515Z" fill="#D33A39"/>
<path opacity="0.3" d="M188.78 195.515H174.625V198.445H175.86L178.415 214.43H184.99L187.545 198.445H188.78V195.515Z" fill="white"/>
<path d="M61.3411 106.915L44.8761 101.54L43.4111 97.67L40.0661 97.565L33.9961 96.415L34.7261 97.67L42.3661 103.215L44.2511 104.155L61.4711 113.15L61.3411 106.915Z" fill="white" stroke="#263238" stroke-width="1.00396" stroke-miterlimit="10"/>
<path d="M43.4101 97.6695L41.8401 96.7295L38.7051 97.8795L39.2251 98.5045L43.4101 97.6695Z" fill="white" stroke="#263238" stroke-width="1.00396" stroke-linejoin="round"/>
<path d="M61.3411 106.915L44.8761 101.54L43.4111 97.67L40.0661 97.565L33.9961 96.415L34.7261 97.67L42.3661 103.215L44.2511 104.155L61.4711 113.15L61.3411 106.915Z" fill="white"/>
<path opacity="0.5" d="M61.3411 106.915L44.8761 101.54L43.4111 97.67L40.0661 97.565L33.9961 96.415L34.7261 97.67L42.3661 103.215L44.2511 104.155L61.4711 113.15L61.3411 106.915Z" fill="#D33A39" stroke="#263238" stroke-width="1.00396" stroke-miterlimit="10"/>
<path d="M61.3411 106.915L44.8761 101.54L43.4111 97.67L40.0661 97.565L33.9961 96.415L34.7261 97.67L42.3661 103.215L44.2511 104.155L61.4711 113.15L61.3411 106.915Z" stroke="#263238" stroke-width="1.00396" stroke-miterlimit="10"/>
<path d="M43.4101 97.6695L41.8401 96.7295L38.7051 97.8795L39.2251 98.5045L43.4101 97.6695Z" fill="white"/>
<path opacity="0.5" d="M43.4101 97.6695L41.8401 96.7295L38.7051 97.8795L39.2251 98.5045L43.4101 97.6695Z" fill="#D33A39" stroke="#263238" stroke-width="1.00396" stroke-linejoin="round"/>
<path d="M43.4101 97.6695L41.8401 96.7295L38.7051 97.8795L39.2251 98.5045L43.4101 97.6695Z" stroke="#263238" stroke-width="1.00396" stroke-linejoin="round"/>
<path d="M64.8361 72.0296C64.8361 72.0296 64.5811 74.2796 65.2161 75.7246C65.8511 77.1696 69.3761 82.0646 69.3761 82.0646L62.7961 87.3396C62.7961 87.3396 60.0661 81.8396 59.5461 80.9496C59.0261 80.0596 58.4011 76.2296 60.0961 73.4846C61.7911 70.7396 64.2311 69.9996 64.8361 72.0296Z" fill="white"/>
<g style="mix-blend-mode:multiply" opacity="0.5">
<path d="M61.4549 79.2598L64.3099 85.1798L62.7899 87.3448L59.9199 82.2198L61.4549 79.2598Z" fill="#D33A39"/>
</g>
<path d="M64.8361 72.0296C64.8361 72.0296 64.5811 74.2796 65.2161 75.7246C65.8511 77.1696 69.3761 82.0646 69.3761 82.0646L62.7961 87.3396C62.7961 87.3396 60.0661 81.8396 59.5461 80.9496C59.0261 80.0596 58.4011 76.2296 60.0961 73.4846C61.7911 70.7396 64.2311 69.9996 64.8361 72.0296Z" stroke="#263238" stroke-width="1.00396" stroke-miterlimit="10"/>
<path d="M66.8755 67.9101C66.4705 65.4101 63.6055 60.3251 59.0605 60.5201C56.1105 60.6501 54.7305 61.2451 53.4505 61.9701C52.4072 62.5848 51.4346 63.3125 50.5505 64.1401C48.3305 66.8051 47.5505 67.5351 47.9805 69.5751C47.9453 70.3888 48.0728 71.2013 48.3555 71.9651C49.0355 73.7801 49.5005 74.9651 50.0905 75.8301C49.9105 76.6751 49.4405 78.9051 49.4155 79.4151C49.3905 79.9251 50.9155 79.5701 51.6855 79.3751C53.1155 82.5751 55.7355 84.7951 56.5505 85.0501C57.9705 85.4951 60.2155 83.1601 61.4055 81.3501C62.5955 79.5401 61.6955 77.5051 61.7005 76.6951C61.7055 75.8851 64.3755 74.1051 65.3655 73.5401C66.3555 72.9751 67.2755 70.4051 66.8755 67.9101Z" fill="white"/>
<g style="mix-blend-mode:multiply" opacity="0.5">
<path d="M48.0014 69.5751C47.9662 70.3888 48.0937 71.2013 48.3764 71.9651C49.0564 73.7801 49.5214 74.9651 50.1114 75.8301C49.9314 76.6751 49.4614 78.9051 49.4364 79.4151C49.4114 79.9251 50.9364 79.5701 51.7064 79.3751C53.1364 82.5751 55.7564 84.7951 56.5714 85.0501C57.9914 85.4951 60.2364 83.1601 61.4264 81.3501C61.7237 80.8982 61.9167 80.3858 61.9914 79.8501C61.9264 79.6151 61.8814 79.4701 61.8814 79.4701C61.8814 79.4701 61.2114 82.0451 59.8814 81.7101C58.5514 81.3751 56.5164 78.7101 55.3814 77.7901C54.2464 76.8701 54.7114 75.6601 54.4864 74.2901C54.2614 72.9201 50.9014 71.7151 50.6764 70.9301C50.4514 70.1451 51.2364 66.8951 51.2364 66.8951C51.2364 66.8951 52.5114 65.1951 52.2364 65.8951C52.0421 66.5021 51.9716 67.1419 52.0291 67.7766C52.0867 68.4113 52.2711 69.028 52.5714 69.5901C52.7822 70.0336 53.1166 70.4069 53.5343 70.665C53.9521 70.9231 54.4355 71.0551 54.9264 71.0451L56.1464 65.0001L53.5714 62.8701L50.5714 64.1201C48.3314 66.8051 47.5664 67.5351 48.0014 69.5751Z" fill="#D33A39"/>
</g>
<path d="M66.8755 67.9101C66.4705 65.4101 63.6055 60.3251 59.0605 60.5201C56.1105 60.6501 54.7305 61.2451 53.4505 61.9701C52.4072 62.5848 51.4346 63.3125 50.5505 64.1401C48.3305 66.8051 47.5505 67.5351 47.9805 69.5751C47.9453 70.3888 48.0728 71.2013 48.3555 71.9651C49.0355 73.7801 49.5005 74.9651 50.0905 75.8301C49.9105 76.6751 49.4405 78.9051 49.4155 79.4151C49.3905 79.9251 50.9155 79.5701 51.6855 79.3751C53.1155 82.5751 55.7355 84.7951 56.5505 85.0501C57.9705 85.4951 60.2155 83.1601 61.4055 81.3501C62.5955 79.5401 61.6955 77.5051 61.7005 76.6951C61.7055 75.8851 64.3755 74.1051 65.3655 73.5401C66.3555 72.9751 67.2755 70.4051 66.8755 67.9101Z" stroke="#263238" stroke-miterlimit="10"/>
<path d="M50.7109 74.3193L51.2109 75.7493C51.2109 75.7493 52.2859 76.1043 53.5959 74.6743" stroke="#263238" stroke-miterlimit="10" stroke-linecap="round"/>
<path d="M54.4062 81C54.4062 81 55.5963 80.88 56.0763 79.21" stroke="#263238" stroke-miterlimit="10" stroke-linecap="round"/>
<path d="M49.875 73.1248C49.875 73.1248 50.23 72.0498 52.375 72.0498" stroke="#263238" stroke-miterlimit="10" stroke-linecap="round"/>
<path d="M60.8706 58.5297C59.3119 58.3056 57.7401 58.1853 56.1656 58.1697C56.1656 58.1697 51.4556 55.4547 46.9306 58.3497C42.4056 61.2447 44.5806 66.3147 44.5806 67.5797C44.5806 68.8447 43.1306 68.8497 44.0356 70.4797C44.9406 72.1097 48.0006 71.2097 48.0006 71.2097C48.0329 70.5949 48.1954 69.994 48.4772 69.4467C48.7591 68.8994 49.1539 68.4181 49.6356 68.0347C51.2656 66.7697 52.5656 66.4947 53.1056 66.8597C53.1056 66.8597 52.7456 69.5747 53.2856 70.6597C53.2856 70.6597 55.0956 71.5647 55.6406 71.5647C56.1856 71.5647 55.2856 72.3297 57.0906 73.0097C57.4194 73.1278 57.7712 73.168 58.1182 73.1273C58.4652 73.0865 58.798 72.9658 59.0906 72.7747C59.3556 71.6747 59.9356 70.0197 61.0156 70.4047C62.6006 70.9697 64.0456 74.8697 61.9006 76.1997C64.4806 76.6697 67.6056 72.1047 67.7906 67.9447C67.9756 63.7847 63.5506 58.9997 60.8706 58.5297Z" fill="#263238"/>
<path d="M53.1855 65.0751C53.1855 65.0751 54.5155 64.3601 56.1455 65.8901C57.7755 67.4201 60.9455 69.4651 65.1455 68.3401" stroke="white" stroke-width="0.5" stroke-linecap="round" stroke-linejoin="round"/>
<path d="M53 63.8499C53 63.8499 53.915 62.4199 55.445 62.4199C56.975 62.4199 60.55 64.5649 63.405 64.5649" stroke="white" stroke-width="0.5" stroke-linecap="round" stroke-linejoin="round"/>
<path d="M51.9617 66.605C51.9617 66.605 50.2267 64.465 48.5967 66.2C46.9667 67.935 48.0017 69.575 48.0017 69.575" stroke="white" stroke-width="0.5" stroke-linecap="round" stroke-linejoin="round"/>
<path d="M45.0254 68.0351C46.0196 67.1385 46.6377 65.8988 46.7554 64.5651C46.9604 62.3201 50.0254 60.3801 51.9604 62.2201" stroke="white" stroke-width="0.5" stroke-linecap="round" stroke-linejoin="round"/>
<path d="M48.1855 59.8693C48.1855 59.8693 51.2505 56.9093 53.8005 60.6843" stroke="white" stroke-width="0.5" stroke-linecap="round" stroke-linejoin="round"/>
<path d="M73.1313 205.404C73.1313 205.404 75.0163 208.334 74.8063 210.219L74.6013 212.104C74.6013 212.104 67.6863 213.999 66.2213 213.999C64.7563 213.999 57.0013 213.264 57.0013 213.264L56.6663 211.934C56.6429 211.836 56.6539 211.733 56.6976 211.642C56.7413 211.551 56.815 211.477 56.9063 211.434L63.8213 208.209L66.0013 205.824L73.1313 205.404Z" fill="white" stroke="#263238" stroke-width="1.00396" stroke-miterlimit="10"/>
<path d="M67.2717 212.525C69.1467 212.67 72.7067 211.525 74.7717 210.795L74.6267 212.105C74.6267 212.105 67.6867 214 66.2217 214C64.7567 214 57.0017 213.265 57.0017 213.265L56.7617 212.315C58.0017 212.32 64.7917 212.335 67.2717 212.525Z" fill="#D33A39" stroke="#263238" stroke-width="1.00396" stroke-miterlimit="10"/>
<path d="M63.83 208.21L53.765 212.59C53.765 212.59 52.905 214.745 53.765 215.175C54.625 215.605 73.375 215.175 73.375 215.175C73.375 215.175 74.67 211.77 72.625 209.485C70.58 207.2 63.83 208.21 63.83 208.21Z" fill="white" stroke="#263238" stroke-width="1.00396" stroke-miterlimit="10"/>
<path d="M73.3758 215.175C73.3758 215.175 54.6258 215.605 53.7658 215.175C53.3508 214.965 53.3358 214.36 53.4308 213.785H73.7058C73.6396 214.258 73.5291 214.723 73.3758 215.175Z" fill="#D33A39" stroke="#263238" stroke-width="1.00396" stroke-miterlimit="10"/>
<path d="M59.0707 132.105C59.0707 132.105 56.4407 143.76 55.4457 151.05C54.4507 158.34 53.8657 172.945 54.0757 174.62C54.2857 176.295 64.7557 204.36 64.7557 204.36L65.8007 206.86L73.1307 205.395C73.1307 205.395 69.7807 194.715 68.5257 188.85C67.2707 182.985 64.5257 173.35 64.5257 171.675C64.5257 170 71.0257 138.01 71.4907 135.91C71.9557 133.81 74.0658 130.585 74.0658 130.585L60.0307 130.3L59.0707 132.105Z" fill="#D33A39" stroke="#263238" stroke-width="1.00396" stroke-miterlimit="10"/>
<path d="M59.0722 132.104C59.0722 132.104 57.5322 142.749 58.1672 150.149C58.8022 157.549 60.1672 173.304 60.1672 175.649C60.1672 177.994 63.9522 191.999 64.1672 196.399C64.5022 202.754 64.0322 205.899 64.0322 205.899L63.8072 208.204C63.8072 208.204 68.2222 208.834 69.1872 209.109C70.3018 209.397 71.452 209.521 72.6022 209.479C72.6022 209.479 74.2072 202.414 74.2072 196.394C74.2072 190.374 72.8722 177.984 72.2072 172.964C71.5422 167.944 73.6372 148.579 74.8272 144.964C76.0172 141.349 78.6172 133.694 76.8672 129.784C75.1172 125.874 59.0722 132.104 59.0722 132.104Z" fill="#D33A39" stroke="#263238" stroke-width="1.00396" stroke-miterlimit="10"/>
<path d="M78.8107 127.824L78.6507 132.584C78.6507 132.584 75.8007 133.149 71.9607 133.814C68.7907 134.364 60.8307 133.669 58.1507 133.409C57.9064 133.388 57.6806 133.27 57.5224 133.083C57.3641 132.896 57.2862 132.654 57.3057 132.409L57.5657 128.109L78.8107 127.824Z" fill="#263238"/>
<path d="M67.6703 80.375C67.6703 80.375 63.1703 85.24 61.4753 88.265C59.7803 91.29 59.1103 95.925 58.4753 99.575C57.8403 103.225 59.5603 111.795 59.0753 115.73L57.5403 128.125C57.5403 128.125 57.2103 128.965 58.3153 129.885C59.4203 130.805 64.8153 131.14 69.6903 131.385C71.4703 131.475 76.7853 130.33 77.6553 130.275C78.7053 130.21 78.7403 128.875 78.7853 127.825C78.9953 122.89 79.8853 109.735 80.4703 104.005C81.6753 92.32 75.0803 81.04 67.6703 80.375Z" fill="white" stroke="#263238" stroke-width="1.00396" stroke-miterlimit="10"/>
<g style="mix-blend-mode:multiply">
<path d="M79.92 110.65C80.12 108.055 80.32 105.7 80.495 104.005C80.545 103.505 80.575 103.005 80.6 102.505L68.645 104.505L58.375 101.005C58.3761 103.13 58.4963 105.253 58.735 107.365L68.81 110.185L79.92 110.65Z" fill="#D33A39"/>
</g>
<g style="mix-blend-mode:multiply">
<path d="M67.2271 80.8643C66.5471 81.6193 65.1971 83.1543 63.9121 84.7843L71.5021 92.4993L74.0021 91.4993L67.2271 80.8643Z" fill="#D33A39"/>
</g>
<path d="M67.6717 80.375C67.6717 80.375 63.1717 85.24 61.4767 88.265C60.9741 89.1843 60.567 90.1527 60.2617 91.155L69.3117 80.7C68.7771 80.538 68.2277 80.4292 67.6717 80.375Z" fill="#263238"/>
<g style="mix-blend-mode:multiply">
<path d="M58.8262 97.6045L68.6462 100.835L80.5712 99.4645C80.3843 96.4939 79.7243 93.5721 78.6162 90.8095L69.0012 94.6645L60.4062 90.7695C59.7034 93.0035 59.1751 95.2887 58.8262 97.6045Z" fill="#D33A39"/>
</g>
<g style="mix-blend-mode:multiply">
<path d="M75.7307 122.889C70.7501 123.726 65.6395 123.308 60.8607 121.674L58.4657 120.854L57.7207 126.854L60.4507 127.619C65.6406 129.071 71.0648 129.488 76.4157 128.849L78.6207 128.584C78.7355 128.342 78.8001 128.078 78.8107 127.809C78.8707 126.474 78.9757 124.534 79.1107 122.309L75.7307 122.889Z" fill="#D33A39"/>
</g>
<g style="mix-blend-mode:multiply">
<path d="M77.0661 114.72C72.0852 115.56 66.9735 115.14 62.1961 113.5L59.1461 112.455C59.2218 113.544 59.2067 114.638 59.1011 115.725L58.7461 118.61L61.7861 119.46C66.9739 120.913 72.3966 121.332 77.7461 120.695L79.2461 120.515C79.3711 118.515 79.5161 116.385 79.6711 114.28L77.0661 114.72Z" fill="#D33A39"/>
</g>
<path d="M30.1565 93.5756L39.8242 101.349L40.2409 100.83L30.5732 93.0574L30.1565 93.5756Z" fill="#263238"/>
<path d="M72.3248 85.7695C72.3248 85.7695 75.8698 88.1845 75.9498 93.8895C75.9848 96.3895 75.7248 98.7245 75.1498 102.82C74.5748 106.915 71.0048 120.25 68.2248 121.87C65.4448 123.49 61.1298 120.43 61.1298 120.43L40.2598 106.575L35.2148 102.5L32.7148 97.7795L33.4998 96.2795L39.6548 101L36.3398 97.9345L36.9898 97.1095L38.1898 97.9445L41.6898 99.2545L42.4548 104.255L43.5348 104.995L63.4998 112.29C63.4998 112.29 63.2498 101.545 63.4348 99.4895C63.6198 97.4345 63.8748 92.2695 66.0748 88.5245" fill="white"/>
<g style="mix-blend-mode:multiply" opacity="0.5">
<path d="M63.3609 104.169C63.3609 107.879 63.4859 112.289 63.4859 112.289L43.5409 105.024L42.4609 104.284L41.6959 99.2843L38.1959 97.9743L37.0009 97.1243L36.3509 97.9493L39.6559 100.999L33.5009 96.2793L32.7559 97.7543L35.2559 102.474L40.3009 106.574L41.5709 107.419L69.1459 116.304L63.3609 104.169Z" fill="#D33A39"/>
</g>
<path d="M72.3248 85.7695C72.3248 85.7695 75.8698 88.1845 75.9498 93.8895C75.9848 96.3895 75.7248 98.7245 75.1498 102.82C74.5748 106.915 71.0048 120.25 68.2248 121.87C65.4448 123.49 61.1298 120.43 61.1298 120.43L40.2598 106.575L35.2148 102.5L32.7148 97.7795L33.4998 96.2795L39.6548 101L36.3398 97.9345L36.9898 97.1095L38.1898 97.9445L41.6898 99.2545L42.4548 104.255L43.5348 104.995L63.4998 112.29C63.4998 112.29 63.2498 101.545 63.4348 99.4895C63.6198 97.4345 63.8748 92.2695 66.0748 88.5245" stroke="#263238" stroke-width="1.00396" stroke-miterlimit="10"/>
<path d="M63.5013 112.29L71.1213 117.79L73.0963 114.29C73.0963 114.29 74.4613 113.215 74.6613 112.405C74.8613 111.595 74.6063 110.28 74.8113 109.47C75.0163 108.66 76.0363 107.9 76.1313 105.94C76.2263 103.98 76.1313 102.345 76.1313 102.345C76.1313 102.345 77.7813 95.5596 77.6013 92.6096C77.4213 89.6596 74.5763 84.4446 72.2963 84.3296C70.0163 84.2146 67.0513 84.5596 64.7513 88.0396C62.4513 91.5196 62.9213 101.68 62.5613 102.315C62.2013 102.95 62.7013 106.085 62.7013 106.085C62.5015 106.234 62.3357 106.424 62.215 106.642C62.0943 106.86 62.0215 107.101 62.0013 107.35C61.9613 108.165 62.8413 110.17 62.8413 110.17L63.5013 112.29Z" fill="white" stroke="#263238" stroke-width="1.00396" stroke-miterlimit="10"/>
<g style="mix-blend-mode:multiply">
<path d="M62.7598 99.7051C62.7755 100.578 62.7102 101.45 62.5648 102.31C62.2448 102.88 62.6098 105.455 62.6898 105.98C66.9757 107.311 71.5077 107.653 75.9448 106.98C76.0401 106.632 76.0971 106.275 76.1148 105.915C76.2148 103.96 76.1148 102.32 76.1148 102.32C76.1148 102.32 76.2598 101.715 76.4598 100.795C71.8645 101.087 67.2511 100.72 62.7598 99.7051Z" fill="#D33A39"/>
</g>
<g style="mix-blend-mode:multiply">
<path d="M64.4407 88.5947C63.7257 90.0297 63.3257 92.1847 63.0957 94.3697C67.6348 96.102 72.5286 96.6976 77.3507 96.1047C77.5431 94.9484 77.6285 93.7768 77.6057 92.6047C77.5191 91.6783 77.3002 90.7691 76.9557 89.9047C72.7453 90.003 68.5395 89.5628 64.4407 88.5947Z" fill="#D33A39"/>
</g>
<path d="M62.8398 110.225L63.4848 112.29L71.1048 117.79L73.0798 114.29C73.0798 114.29 74.4448 113.215 74.6448 112.405C74.6805 112.264 74.7023 112.12 74.7098 111.975C70.6943 111.905 66.7046 111.317 62.8398 110.225Z" fill="#263238"/>
<path d="M68.355 209.045C68.355 209.045 68.525 204.715 69.355 198.385C70.185 192.055 68.19 183.065 67.855 181.565C67.52 180.065 68.025 176.735 67.69 175.565C67.355 174.395 65.735 169.405 66.69 163.615C67.645 157.825 68.4199 142.52 68.4199 142.52C68.4199 142.52 66.0149 140.565 65.3099 138.02C64.6049 135.475 65.1449 134.675 65.1449 134.675" stroke="#263238" stroke-width="1.00396" stroke-miterlimit="10"/>
<path d="M69.4699 134.91L68.5449 140.03" stroke="#263238" stroke-width="1.00396" stroke-miterlimit="10"/>
</svg>
